<svg xmlns="http://www.w3.org/2000/svg" width="24" height="24" viewBox="0 0 24 24">
    <g fill="none" fill-rule="evenodd">
        <path d="M0 0h24v24H0z"/>
        <path fill="#333" fill-rule="nonzero" d="M17.46 4.438L12 9.891 6.54 4.438a1.482 1.482 0 0 0-2.104 0C4.158 4.716 4 5.098 4 5.496c0 .4.158.78.436 1.058L9.889 12l-5.453 5.446A1.495 1.495 0 0 0 4 18.504c0 .399.158.78.436 1.057.585.585 1.52.585 2.104 0L12 14.11l.633.632 4.827 4.82c.58.58 1.501.585 2.087.018.296-.295.453-.676.453-1.075 0-.4-.157-.78-.436-1.058L14.112 12l.616-.615 4.837-4.831c.278-.278.435-.659.435-1.058s-.157-.78-.435-1.057a1.482 1.482 0 0 0-2.105 0z"/>
    </g>
</svg>
