<svg xmlns="http://www.w3.org/2000/svg" width="24" height="24" viewBox="0 0 24 24">
    <g fill="#0061FF" fill-rule="evenodd">
        <path d="M20.226 16.34a3.749 3.749 0 0 1-3.745 3.745H7.52a3.75 3.75 0 0 1-3.746-3.744V7.38A3.75 3.75 0 0 1 7.52 3.636h8.961a3.749 3.749 0 0 1 3.745 3.744v8.96zM16.48 1.86H7.52A5.526 5.526 0 0 0 2 7.38v8.96a5.526 5.526 0 0 0 5.52 5.52h8.961A5.526 5.526 0 0 0 22 16.34V7.38a5.526 5.526 0 0 0-5.519-5.52z"/>
        <path d="M12 15.138a3.282 3.282 0 0 1-3.279-3.278A3.282 3.282 0 0 1 12 8.582a3.282 3.282 0 0 1 3.279 3.278A3.282 3.282 0 0 1 12 15.138m0-8.278c-2.757 0-5 2.242-5 5 0 2.757 2.243 5 5 5s5-2.243 5-5c0-2.758-2.243-5-5-5M17.5 4.86c-.394 0-.781.16-1.06.44-.279.278-.44.666-.44 1.062 0 .393.161.78.44 1.06a1.52 1.52 0 0 0 1.06.438c.395 0 .781-.161 1.06-.437.28-.28.44-.668.44-1.061 0-.396-.16-.784-.44-1.063a1.507 1.507 0 0 0-1.06-.439"/>
    </g>
</svg>
