<svg xmlns="http://www.w3.org/2000/svg" width="134" height="154" viewBox="0 0 134 154">
    <g fill="none" fill-rule="evenodd">
        <path fill="none" d="M0 0h134v154H0z"/>
        <path fill="#0061FF" d="M9.056 76.166c-3.668-18.791 2.358-39.352 15.89-53.046C43.727 4.116 76.05.296 98.788 14.878 118.593 27.58 129.391 52.8 124.75 76.427c-3.006-15.93-12.326-30.531-25.897-39.253C87.28 23.869 66.883 18.894 50.565 25.8c-5.879 2.488-11.006 6.442-15.075 11.288a52.633 52.633 0 0 0-10.294 8.01c-8.402 8.403-13.963 19.434-16.14 31.067zm98.188-.611c3.204-12.394 1.08-26.211-6.833-36.53l-1.558-1.851c13.575 8.746 22.892 23.34 25.897 39.253a50.612 50.612 0 0 1-2.322 8.502c-2.984 8.14-7.842 15.615-13.968 21.705a56.13 56.13 0 0 1-9.413 7.436c.131-.157.064-.077 0 0-15.17 9.633-34.721 12.266-51.715 6.276a55.764 55.764 0 0 1-11.396-5.547c-4.444-4.651-7.763-10.231-9.52-16.41-2.048-7.207-1.875-14.804.103-21.935 6.332 21.672 31.788 36.064 54.67 27.84 5.909-2.124 11.322-5.626 15.73-10.06 5.085-5.177 8.567-11.707 10.325-18.68z"/>
        <path fill="#0061FF" d="M35.72 36.755C54.403 25.4 79.638 24.78 98.5 36.719l.365.255 1.558 1.852c7.912 10.318 10.037 24.135 6.833 36.529-1.338-5.324-3.717-10.339-7.144-14.698C88.795 46.259 67.51 40.664 50.576 47.832 38.712 52.854 29.91 63.844 26.53 76.254l-.046.168c-1.934 7.082-2.09 14.616-.057 21.767 1.757 6.179 5.076 11.759 9.52 16.41l.13.138c11.053 11.725 28.9 17.42 45.123 11.588 5.906-2.123 11.322-5.625 15.73-10.06l2.128-2.395a56.105 56.105 0 0 0 9.413-7.436c6.126-6.09 10.984-13.564 13.968-21.705a50.612 50.612 0 0 0 2.322-8.502c1.953 10.092 1.344 20.729-2.322 30.733-2.982 8.139-7.842 15.615-13.969 21.705-15.746 15.466-40.35 21.036-61.127 13.712-17.866-6.298-32.237-21.68-37.297-39.91-2.39-8.606-2.646-17.721-.979-26.501l.052-.273C11.33 64.161 16.87 53.237 25.207 44.9a52.633 52.633 0 0 1 10.294-8.011l.22-.134z"/>
        <path fill="#004FB4" d="M26.535 76s3.427 12.639 14.932 21.027c-5.175 4.39-6.74 10.249-5.52 17.24 0 0-15.84-14.867-9.412-38.267zM106.755 75.253S104.483 63.405 94 54.766c4.654-3.405 6.671-8.942 4.453-17.766 0 0 .083.115.272.303 2.425 2.417 13.246 16.254 8.03 37.95z"/>
    </g>
</svg>
