<svg xmlns="http://www.w3.org/2000/svg" width="134" height="238" viewBox="0 0 134 238">
    <g fill="none" fill-rule="evenodd">
        <path fill="none" d="M0 0h134v238H0z"/>
        <path fill="#0061FF" d="M9.067 79.165C5.4 60.374 11.425 39.813 24.957 26.119c18.78-19.004 51.104-22.824 73.841-8.242 19.806 12.703 30.604 37.922 25.963 61.549-3.006-15.93-12.326-30.531-25.897-39.253C87.29 26.868 66.894 21.893 50.576 28.8c-5.88 2.488-11.006 6.442-15.075 11.288a52.633 52.633 0 0 0-10.294 8.011c-8.402 8.402-13.963 19.433-16.14 31.066zm98.188-.611c3.204-12.394 1.079-26.211-6.833-36.529l-1.558-1.852c13.575 8.746 22.892 23.34 25.897 39.253a50.612 50.612 0 0 1-2.322 8.502c-2.984 8.141-7.842 15.615-13.968 21.705a56.13 56.13 0 0 1-9.413 7.436c.131-.157.064-.077 0 0-15.17 9.633-34.722 12.266-51.715 6.276a55.764 55.764 0 0 1-11.396-5.547c-4.444-4.651-7.763-10.231-9.52-16.41-2.048-7.207-1.875-14.804.103-21.935 6.332 21.672 31.788 36.064 54.67 27.84 5.909-2.124 11.322-5.626 15.73-10.06 5.085-5.177 8.567-11.707 10.325-18.679z"/>
        <path fill="#0061FF" d="M35.72 39.954c18.682-11.355 43.917-11.975 62.779-.036l.365.255 1.558 1.852c7.912 10.318 10.037 24.135 6.833 36.529-1.338-5.324-3.717-10.339-7.144-14.698C88.795 49.458 67.51 43.863 50.576 51.031 38.712 56.053 29.91 67.043 26.53 79.453l-.046.168c-1.934 7.082-2.09 14.616-.057 21.767 1.757 6.179 5.076 11.759 9.52 16.41l.13.138c11.053 11.725 28.9 17.42 45.123 11.588 5.906-2.123 11.322-5.625 15.73-10.06l2.128-2.395a56.105 56.105 0 0 0 9.413-7.436c6.126-6.09 10.984-13.564 13.968-21.705a50.612 50.612 0 0 0 2.322-8.502c1.953 10.092 1.344 20.729-2.322 30.733-2.982 8.139-7.842 15.615-13.969 21.705-15.746 15.466-40.35 21.036-61.127 13.712-17.866-6.297-32.237-21.68-37.297-39.91-2.39-8.606-2.646-17.721-.979-26.501l.052-.273C11.33 67.36 16.87 56.436 25.207 48.099a52.633 52.633 0 0 1 10.294-8.011l.22-.134z"/>
        <path fill="#004FB4" d="M26.526 79.526s3.427 12.639 14.932 21.027c-5.174 4.39-6.74 10.249-5.52 17.24 0 0-15.84-14.867-9.412-38.267zM107.252 78.557s-2.271-11.848-12.754-20.487c4.654-3.405 6.671-8.942 4.453-17.766 0 0 .083.115.272.303 2.424 2.417 13.246 16.254 8.03 37.95z"/>
        <path fill="#333" d="M11.15 194.953a18.836 18.836 0 0 1-.006-.458c0-10.44 8.584-18.915 19.157-18.915s19.157 8.476 19.157 18.915c0 10.44-8.584 18.915-19.157 18.915a19.24 19.24 0 0 1-9.91-2.728v14.278a4.615 4.615 0 0 1-4.621 4.608h-.005a4.615 4.615 0 0 1-4.62-4.608v-30.007h.005zm64.233-19.323a4.614 4.614 0 0 1 4.621 4.608v28.585a4.615 4.615 0 0 1-4.62 4.608h-.005a4.614 4.614 0 0 1-4.621-4.608v-28.585a4.614 4.614 0 0 1 4.62-4.608h.005zm-16.752 0a4.614 4.614 0 0 1 4.62 4.608v28.585a4.615 4.615 0 0 1-4.62 4.608h-.005a4.614 4.614 0 0 1-4.621-4.608v-28.585a4.614 4.614 0 0 1 4.621-4.608h.005zm43.304 12.434l9.392-9.273a4.67 4.67 0 0 1 6.557 0h.001a4.524 4.524 0 0 1 0 6.437l-9.411 9.292 9.411 9.292a4.525 4.525 0 0 1 0 6.437h-.001a4.67 4.67 0 0 1-6.557 0l-9.392-9.273-9.392 9.274a4.669 4.669 0 0 1-6.557 0 4.523 4.523 0 0 1 0-6.438l9.41-9.292-9.41-9.292a4.523 4.523 0 0 1 0-6.437 4.669 4.669 0 0 1 6.557 0l9.392 9.273zm-71.634-3.342c5.463 0 9.898 4.38 9.898 9.773 0 5.394-4.435 9.773-9.898 9.773-5.462 0-9.897-4.379-9.897-9.773s4.435-9.773 9.897-9.773z"/>
    </g>
</svg>
