<svg xmlns="http://www.w3.org/2000/svg" width="324" height="162" viewBox="0 0 324 162">
    <path fill="#FFF" fill-rule="evenodd" d="M.017 58.132A57.019 57.019 0 0 1 0 56.758C0 25.432 25.732 0 57.425 0 89.12 0 114.85 25.432 114.85 56.758c0 31.326-25.731 56.758-57.425 56.758-10.869 0-21.037-2.99-29.707-8.185v42.842c0 7.637-6.202 13.826-13.852 13.827h-.013C6.202 162 0 155.81 0 148.173V58.132h.017zM192.564.15c7.65 0 13.853 6.19 13.853 13.827v85.774c0 7.636-6.202 13.826-13.853 13.826h-.013c-7.651 0-13.852-6.19-13.852-13.826V13.977c0-7.636 6.2-13.827 13.852-13.827h.013zm-50.219 0c7.651 0 13.852 6.19 13.852 13.827v85.774c0 7.636-6.2 13.826-13.852 13.826h-.013c-7.65 0-13.853-6.19-13.853-13.826V13.977c0-7.636 6.202-13.827 13.853-13.827h.013zm129.811 37.31l28.159-27.827c5.443-5.379 14.209-5.379 19.652 0v.002a13.577 13.577 0 0 1 0 19.315L291.76 56.833l28.208 27.882a13.58 13.58 0 0 1 0 19.315v.001c-5.443 5.38-14.209 5.38-19.652 0l-28.159-27.827-28.158 27.827c-5.443 5.38-14.207 5.38-19.65 0h-.002a13.584 13.584 0 0 1-4.035-9.659c0-3.627 1.454-7.105 4.035-9.657l28.208-27.882-28.208-27.883a13.584 13.584 0 0 1-4.035-9.658 13.58 13.58 0 0 1 4.035-9.657l.002-.002c5.443-5.379 14.207-5.379 19.65 0l28.158 27.827zM57.426 27.433c16.375 0 29.67 13.14 29.67 29.325 0 16.186-13.295 29.325-29.67 29.325-16.376 0-29.671-13.14-29.671-29.325 0-16.184 13.295-29.325 29.67-29.325z"/>
</svg>
