<svg xmlns="http://www.w3.org/2000/svg" width="24" height="24" viewBox="0 0 24 24">
    <path fill="#0061FF" fill-rule="evenodd" d="M22 5.926a8.084 8.084 0 0 1-2.358.644A4.115 4.115 0 0 0 21.45 4.3a8.17 8.17 0 0 1-2.606.995 4.105 4.105 0 0 0-7.099 2.81c0 .322.036.634.106.935a11.655 11.655 0 0 1-8.458-4.288 4.088 4.088 0 0 0-.555 2.064c0 1.423.725 2.68 1.825 3.413a4.08 4.08 0 0 1-1.857-.51l-.001.05a4.105 4.105 0 0 0 3.292 4.024 4.142 4.142 0 0 1-1.853.07 4.106 4.106 0 0 0 3.833 2.849A8.236 8.236 0 0 1 2 18.411a11.608 11.608 0 0 0 6.29 1.843c7.55 0 11.676-6.251 11.676-11.675 0-.177-.003-.355-.012-.533A8.23 8.23 0 0 0 22 5.926"/>
</svg>
