<svg xmlns="http://www.w3.org/2000/svg" width="24" height="24" viewBox="0 0 24 24">
    <g fill="none" fill-rule="nonzero">
        <path d="M24 0H0v24h24z"/>
        <g transform="translate(5.5 4)">
            <ellipse cx="6.5" cy="6.4" fill="#0061FF" rx="6.5" ry="6.4"/>
            <path fill="#0061FF" d="M6.5 16c3.59 0 6.117-3.586 6.117-7.171C12.617 5.244 10.09 3.2 6.5 3.2S.477 5.244.477 8.829C.477 12.414 2.91 16 6.5 16z"/>
            <path fill="#FFF" d="M7.313 9.931C7.313 9.307 6.5 8.8 6.5 8.8s-.813.507-.813 1.131c0 .625 1.625.625 1.625 0z"/>
            <g fill="#FFF">
                <path d="M2.812 11.491c.37 0 .67.367.67.819 0 .452-1.34.452-1.34 0s.3-.819.67-.819zM4.214 12.036c.37 0 .67.366.67.819 0 .452-1.34.452-1.34 0 0-.453.3-.82.67-.82zM5.738 12.41c.37 0 .67.367.67.82 0 .451-1.34.451-1.34 0 0-.453.3-.82.67-.82zM7.262 12.41c.37 0 .67.367.67.82 0 .451-1.34.451-1.34 0 0-.453.3-.82.67-.82zM8.786 12.036c.37 0 .67.366.67.819 0 .452-1.34.452-1.34 0 0-.453.3-.82.67-.82zM10.188 11.491c.37 0 .67.367.67.819 0 .452-1.34.452-1.34 0s.3-.819.67-.819zM8.313 14.352c-.294 0-.533-.291-.533-.65 0-.36 1.067-.36 1.067 0 0 .359-.24.65-.534.65z"/>
                <path d="M7.094 14.556c-.294 0-.533-.291-.533-.65 0-.36 1.067-.36 1.067 0 0 .359-.24.65-.534.65zM5.875 14.556c-.294 0-.533-.291-.533-.65 0-.36 1.067-.36 1.067 0 0 .359-.24.65-.534.65zM4.656 14.352c-.294 0-.533-.291-.533-.65 0-.36 1.067-.36 1.067 0 0 .359-.24.65-.534.65z"/>
            </g>
            <ellipse cx="3.25" cy="8" fill="#FFF" rx="1.625" ry="1.6"/>
            <ellipse cx="9.75" cy="8" fill="#FFF" rx="1.625" ry="1.6"/>
            <ellipse cx="3.25" cy="8" fill="#0061FF" rx="1" ry="1"/>
            <ellipse cx="9.75" cy="8" fill="#0061FF" rx="1" ry="1"/>
        </g>
    </g>
</svg>
