<svg xmlns="http://www.w3.org/2000/svg" width="24" height="24" viewBox="0 0 24 24">
    <g fill="none" fill-rule="nonzero">
        <path d="M0 0h24v24H0z"/>
        <g transform="translate(1 5)">
            <path fill="#0061FF" d="M18.947 11H21.1c.22 0 .4.18.4.4v.7a.4.4 0 0 1-.4.4h-1.942c.073-.378.057-1.06-.211-1.5zM3 11H.9a.4.4 0 0 0-.4.4v.7c0 .22.18.4.4.4h1.893c-.071-.378-.056-1.06.207-1.5z"/>
            <path fill="#0061FF" d="M9.2 12.251h5.349c.072-1.563.998-2.647 2.47-2.647 1.345 0 2.276 1.045 2.373 2.196H20.8V1.5a.3.3 0 0 0-.3-.3h-11a.3.3 0 0 0-.3.3v10.751zM9.5 1h11a.5.5 0 0 1 .5.5V12h-1.8c0-.892-.688-2.196-2.18-2.196-1.494 0-2.276 1.18-2.276 2.647H9V1.5a.5.5 0 0 1 .5-.5z"/>
            <path fill="#0061FF" d="M7.042 3.6a.3.3 0 0 0-.228.105L3.987 7l-2.252.9a.8.8 0 0 0-.503.742V11.8h1.332c.112-1.12 1.145-2.196 2.455-2.196 1.466 0 2.382 1.028 2.45 2.656H9.01V3.59l-1.968.01zm1.968-.21h.2v.198l-.2.002v-.2zm-1.97.01l2.17-.01v9.07H7.274c0-1.617-.83-2.656-2.255-2.656-1.425 0-2.265 1.284-2.265 2.196H1.032V8.642a1 1 0 0 1 .63-.928l2.251-.9 2.749-3.238a.5.5 0 0 1 .379-.177z"/>
            <circle cx="17" cy="12" r="2" fill="#0061FF"/>
            <circle cx="17" cy="12" r="1" fill="#FFF"/>
            <path fill="#0061FF" d="M8.538 4.072H7.109L5.093 6.419a.2.2 0 0 0 .152.33h3.293V4.072zm-1.429-.2h1.629v3.077H5.245a.4.4 0 0 1-.304-.66L6.957 3.94a.2.2 0 0 1 .152-.07z"/>
            <circle cx="5" cy="12" r="2" fill="#0061FF"/>
            <circle cx="5" cy="12" r="1" fill="#FFF"/>
            <path fill="#0061FF" d="M10.2 2.8h.6v-.6h-.6v.6zM10 2h1v1h-1V2zM14.2 2.8h.6v-.6h-.6v.6zM14 2h1v1h-1V2zM18.2 2.8h.6v-.6h-.6v.6zM18 2h1v1h-1V2zM17.176 4.894V4h.7v.894l.774-.447.35.606-.774.447.774.447-.35.606-.774-.447V7h-.7v-.894l-.774.447-.35-.606.774-.447-.774-.447.35-.606.774.447zM10.4.5a.4.4 0 0 0-.4.4V1h1.5V.9a.4.4 0 0 0-.4-.4h-.7zm0-.2h.7a.6.6 0 0 1 .6.6v.3H9.8V.9a.6.6 0 0 1 .6-.6zM14.8 6.739V4.272a.2.2 0 0 0-.2-.2h-4.2a.2.2 0 0 0-.2.2V6.74h4.6zm-4.4-2.867h4.2c.22 0 .4.18.4.4V6.94h-5V4.272c0-.22.18-.4.4-.4zM4.214 7.227h4.334c.11 0 .2.09.2.2v4.707H7.682c0-.788-.688-2.76-2.556-2.76-.982 0-2.077.591-2.38 1.411H1.504V8.55a.4.4 0 0 1 .252-.372l2.31-.923a.4.4 0 0 1 .148-.028z"/>
            <path fill="#FFF" d="M4.13 5.827l.33-.228.418.228V7.44l-.282.02-.492-.322z"/>
            <path fill="#0061FF" d="M4.8 6a.3.3 0 0 0-.6 0v1a.3.3 0 0 0 .3.3h.3V6zm-.3-.5A.5.5 0 0 1 5 6v1.5h-.5A.5.5 0 0 1 4 7V6a.5.5 0 0 1 .5-.5z"/>
        </g>
    </g>
</svg>
