<svg xmlns="http://www.w3.org/2000/svg" width="24" height="24" viewBox="0 0 24 24">
    <g fill="none" fill-rule="nonzero">
        <path d="M24 0H0v24h24z"/>
        <path fill="#0061FF" d="M16.93 11.325l-.752.201a.34.34 0 0 0-.12.598l1.993 1.54a.34.34 0 0 0 .522-.14l.956-2.33a.34.34 0 0 0-.402-.458l-.812.218c-1.072-3.412-5.003-5.398-8.86-4.365-2.698.723-4.165 2.347-4.895 4.89-.032.159-.02.245.037.258.085.02.158-.01.18-.126.505-1.762 2.268-3.48 4.902-4.185 3.096-.83 6.38 1.247 7.252 3.899zM9.732 7.619c-2.443.654-4.247 2.252-4.758 4.03-.042.22-.22.331-.422.283-.214-.05-.24-.233-.183-.507.773-2.696 2.348-4.31 5.035-5.03 3.867-1.035 7.851.892 9.042 4.317l.63-.169a.54.54 0 0 1 .64.727l-.957 2.33a.54.54 0 0 1-.83.221l-1.992-1.539a.54.54 0 0 1 .19-.949l.544-.146c-.974-2.575-4.147-4.316-6.939-3.568zM5.333 3.667H7v1.666H5.333V7H3.667V5.333H2V3.667h1.667V2h1.666v1.667z"/>
        <g transform="translate(14 18)">
            <path fill="#FFF" d="M4 2.5c1.657 0 3-.224 3-.5v-.401H1V2c0 .276 1.343.5 3 .5z"/>
            <path fill="#0061FF" d="M4 2.6C2.249 2.6.9 2.375.9 2v-.401l.1-.1h6l.1.1V2c0 .375-1.349.6-3.1.6zm-2.9-.901V2c0 .177 1.338.4 2.9.4 1.562 0 2.9-.223 2.9-.4v-.301H1.1z"/>
            <ellipse cx="4" cy="1.5" fill="#FFF" rx="3" ry="1"/>
            <path fill="#0061FF" d="M4 2.1C2.249 2.1.9 1.875.9 1.5S2.249.9 4 .9c1.751 0 3.1.225 3.1.6s-1.349.6-3.1.6zm0-.2c1.562 0 2.9-.223 2.9-.4 0-.177-1.338-.4-2.9-.4-1.562 0-2.9.223-2.9.4 0 .177 1.338.4 2.9.4z"/>
        </g>
        <g transform="translate(14 17)">
            <path fill="#FFF" d="M4 2.5c1.657 0 3-.224 3-.5v-.401H1V2c0 .276 1.343.5 3 .5z"/>
            <path fill="#0061FF" d="M4 2.6C2.249 2.6.9 2.375.9 2v-.401l.1-.1h6l.1.1V2c0 .375-1.349.6-3.1.6zm-2.9-.901V2c0 .177 1.338.4 2.9.4 1.562 0 2.9-.223 2.9-.4v-.301H1.1z"/>
            <ellipse cx="4" cy="1.5" fill="#FFF" rx="3" ry="1"/>
            <path fill="#0061FF" d="M4 2.1C2.249 2.1.9 1.875.9 1.5S2.249.9 4 .9c1.751 0 3.1.225 3.1.6s-1.349.6-3.1.6zm0-.2c1.562 0 2.9-.223 2.9-.4 0-.177-1.338-.4-2.9-.4-1.562 0-2.9.223-2.9.4 0 .177 1.338.4 2.9.4z"/>
        </g>
        <g transform="translate(2 18)">
            <path fill="#FFF" d="M4 2.5c1.657 0 3-.224 3-.5v-.401H1V2c0 .276 1.343.5 3 .5z"/>
            <path fill="#0061FF" d="M4 2.6C2.249 2.6.9 2.375.9 2v-.401l.1-.1h6l.1.1V2c0 .375-1.349.6-3.1.6zm-2.9-.901V2c0 .177 1.338.4 2.9.4 1.562 0 2.9-.223 2.9-.4v-.301H1.1z"/>
            <ellipse cx="4" cy="1.5" fill="#FFF" rx="3" ry="1"/>
            <path fill="#0061FF" d="M4 2.1C2.249 2.1.9 1.875.9 1.5S2.249.9 4 .9c1.751 0 3.1.225 3.1.6s-1.349.6-3.1.6zm0-.2c1.562 0 2.9-.223 2.9-.4 0-.177-1.338-.4-2.9-.4-1.562 0-2.9.223-2.9.4 0 .177 1.338.4 2.9.4z"/>
        </g>
        <g transform="translate(13 16)">
            <path fill="#FFF" d="M4 2.5c1.657 0 3-.224 3-.5v-.401H1V2c0 .276 1.343.5 3 .5z"/>
            <path fill="#0061FF" d="M4 2.6C2.249 2.6.9 2.375.9 2v-.401l.1-.1h6l.1.1V2c0 .375-1.349.6-3.1.6zm-2.9-.901V2c0 .177 1.338.4 2.9.4 1.562 0 2.9-.223 2.9-.4v-.301H1.1z"/>
            <ellipse cx="4" cy="1.5" fill="#FFF" rx="3" ry="1"/>
            <path fill="#0061FF" d="M4 2.1C2.249 2.1.9 1.875.9 1.5S2.249.9 4 .9c1.751 0 3.1.225 3.1.6s-1.349.6-3.1.6zm0-.2c1.562 0 2.9-.223 2.9-.4 0-.177-1.338-.4-2.9-.4-1.562 0-2.9.223-2.9.4 0 .177 1.338.4 2.9.4z"/>
        </g>
        <g transform="translate(2 17)">
            <path fill="#FFF" d="M4 2.5c1.657 0 3-.224 3-.5v-.401H1V2c0 .276 1.343.5 3 .5z"/>
            <path fill="#0061FF" d="M4 2.6C2.249 2.6.9 2.375.9 2v-.401l.1-.1h6l.1.1V2c0 .375-1.349.6-3.1.6zm-2.9-.901V2c0 .177 1.338.4 2.9.4 1.562 0 2.9-.223 2.9-.4v-.301H1.1z"/>
            <ellipse cx="4" cy="1.5" fill="#FFF" rx="3" ry="1"/>
            <path fill="#0061FF" d="M4 2.1C2.249 2.1.9 1.875.9 1.5S2.249.9 4 .9c1.751 0 3.1.225 3.1.6s-1.349.6-3.1.6zm0-.2c1.562 0 2.9-.223 2.9-.4 0-.177-1.338-.4-2.9-.4-1.562 0-2.9.223-2.9.4 0 .177 1.338.4 2.9.4z"/>
        </g>
        <g transform="translate(3 16)">
            <path fill="#FFF" d="M4 2.5c1.657 0 3-.224 3-.5v-.401H1V2c0 .276 1.343.5 3 .5z"/>
            <path fill="#0061FF" d="M4 2.6C2.249 2.6.9 2.375.9 2v-.401l.1-.1h6l.1.1V2c0 .375-1.349.6-3.1.6zm-2.9-.901V2c0 .177 1.338.4 2.9.4 1.562 0 2.9-.223 2.9-.4v-.301H1.1z"/>
            <ellipse cx="4" cy="1.5" fill="#FFF" rx="3" ry="1"/>
            <path fill="#0061FF" d="M4 2.1C2.249 2.1.9 1.875.9 1.5S2.249.9 4 .9c1.751 0 3.1.225 3.1.6s-1.349.6-3.1.6zm0-.2c1.562 0 2.9-.223 2.9-.4 0-.177-1.338-.4-2.9-.4-1.562 0-2.9.223-2.9.4 0 .177 1.338.4 2.9.4z"/>
        </g>
        <g transform="translate(14 15)">
            <path fill="#FFF" d="M4 2.5c1.657 0 3-.224 3-.5v-.401H1V2c0 .276 1.343.5 3 .5z"/>
            <path fill="#0061FF" d="M4 2.6C2.249 2.6.9 2.375.9 2v-.401l.1-.1h6l.1.1V2c0 .375-1.349.6-3.1.6zm-2.9-.901V2c0 .177 1.338.4 2.9.4 1.562 0 2.9-.223 2.9-.4v-.301H1.1z"/>
            <ellipse cx="4" cy="1.5" fill="#FFF" rx="3" ry="1"/>
            <path fill="#0061FF" d="M4 2.1C2.249 2.1.9 1.875.9 1.5S2.249.9 4 .9c1.751 0 3.1.225 3.1.6s-1.349.6-3.1.6zm0-.2c1.562 0 2.9-.223 2.9-.4 0-.177-1.338-.4-2.9-.4-1.562 0-2.9.223-2.9.4 0 .177 1.338.4 2.9.4z"/>
        </g>
        <g transform="translate(2 15)">
            <path fill="#FFF" d="M4 2.5c1.657 0 3-.224 3-.5v-.401H1V2c0 .276 1.343.5 3 .5z"/>
            <path fill="#0061FF" d="M4 2.6C2.249 2.6.9 2.375.9 2v-.401l.1-.1h6l.1.1V2c0 .375-1.349.6-3.1.6zm-2.9-.901V2c0 .177 1.338.4 2.9.4 1.562 0 2.9-.223 2.9-.4v-.301H1.1z"/>
            <ellipse cx="4" cy="1.5" fill="#FFF" rx="3" ry="1"/>
            <path fill="#0061FF" d="M4 2.1C2.249 2.1.9 1.875.9 1.5S2.249.9 4 .9c1.751 0 3.1.225 3.1.6s-1.349.6-3.1.6zm0-.2c1.562 0 2.9-.223 2.9-.4 0-.177-1.338-.4-2.9-.4-1.562 0-2.9.223-2.9.4 0 .177 1.338.4 2.9.4z"/>
        </g>
        <g transform="translate(13 14)">
            <path fill="#FFF" d="M4 2.5c1.657 0 3-.224 3-.5v-.401H1V2c0 .276 1.343.5 3 .5z"/>
            <path fill="#0061FF" d="M4 2.6C2.249 2.6.9 2.375.9 2v-.401l.1-.1h6l.1.1V2c0 .375-1.349.6-3.1.6zm-2.9-.901V2c0 .177 1.338.4 2.9.4 1.562 0 2.9-.223 2.9-.4v-.301H1.1z"/>
            <ellipse cx="4" cy="1.5" fill="#FFF" rx="3" ry="1"/>
            <path fill="#0061FF" d="M4 2.1C2.249 2.1.9 1.875.9 1.5S2.249.9 4 .9c1.751 0 3.1.225 3.1.6s-1.349.6-3.1.6zm0-.2c1.562 0 2.9-.223 2.9-.4 0-.177-1.338-.4-2.9-.4-1.562 0-2.9.223-2.9.4 0 .177 1.338.4 2.9.4z"/>
        </g>
        <g transform="translate(1 14)">
            <path fill="#FFF" d="M4 2.5c1.657 0 3-.224 3-.5v-.401H1V2c0 .276 1.343.5 3 .5z"/>
            <path fill="#0061FF" d="M4 2.6C2.249 2.6.9 2.375.9 2v-.401l.1-.1h6l.1.1V2c0 .375-1.349.6-3.1.6zm-2.9-.901V2c0 .177 1.338.4 2.9.4 1.562 0 2.9-.223 2.9-.4v-.301H1.1z"/>
            <ellipse cx="4" cy="1.5" fill="#FFF" rx="3" ry="1"/>
            <path fill="#0061FF" d="M4 2.1C2.249 2.1.9 1.875.9 1.5S2.249.9 4 .9c1.751 0 3.1.225 3.1.6s-1.349.6-3.1.6zm0-.2c1.562 0 2.9-.223 2.9-.4 0-.177-1.338-.4-2.9-.4-1.562 0-2.9.223-2.9.4 0 .177 1.338.4 2.9.4z"/>
        </g>
    </g>
</svg>
