<svg xmlns="http://www.w3.org/2000/svg" width="24" height="24" viewBox="0 0 24 24">
    <g fill="none" fill-rule="nonzero">
        <path d="M0 0h24v24H0z"/>
        <path fill="#0061FF" d="M7 7h4v1H7z"/>
        <path fill="#0061FF" d="M7.7 7.2v11.3a1.3 1.3 0 1 0 2.6 0V7.2H7.7zM7.5 7h3v11.5a1.5 1.5 0 0 1-3 0V7zM8.1 4h1.8a.6.6 0 0 1 .6.6V7h-3V4.6a.6.6 0 0 1 .6-.6z"/>
        <path fill="#FFF" d="M10 4.405a.1.1 0 0 1 .1.1v2.499h-.2V4.505a.1.1 0 0 1 .1-.1zM9 4.405a.1.1 0 0 1 .1.1v2.499h-.2V4.505a.1.1 0 0 1 .1-.1zM8 4.405a.1.1 0 0 1 .1.1v2.499h-.2V4.505a.1.1 0 0 1 .1-.1z"/>
        <path fill="#0061FF" d="M8.8 9v8h1.5V9H8.8zm-.2-.2h1.9v8.4H8.6V8.8z"/>
        <g>
            <path fill="#0061FF" d="M2 7h4v1H2z"/>
            <path fill="#0061FF" d="M2.7 7.2v11.3a1.3 1.3 0 1 0 2.6 0V7.2H2.7zM2.5 7h3v11.5a1.5 1.5 0 0 1-3 0V7z"/>
            <path fill="#0061FF" d="M2.5 13h3v5.5a1.5 1.5 0 0 1-3 0V13zM3.1 4h1.8a.6.6 0 0 1 .6.6V7h-3V4.6a.6.6 0 0 1 .6-.6z"/>
            <path fill="#FFF" d="M5 4.405a.1.1 0 0 1 .1.1v2.499h-.2V4.505a.1.1 0 0 1 .1-.1zM4 4.405a.1.1 0 0 1 .1.1v2.499h-.2V4.505a.1.1 0 0 1 .1-.1zM3 4.405a.1.1 0 0 1 .1.1v2.499h-.2V4.505a.1.1 0 0 1 .1-.1zM3.8 9h1.5v8H3.8z"/>
            <path fill="#0061FF" d="M3.8 9v8h1.5V9H3.8zm-.2-.2h1.9v8.4H3.6V8.8z"/>
        </g>
        <g fill="#0061FF">
            <path d="M12.345 8.2l1.002 1.746.027.1V19a.8.8 0 0 0 .8.8H21a.8.8 0 0 0 .8-.8l.022-10.036a.525.525 0 0 0-.468-.764h-9.009zm0-.2h9.009A.725.725 0 0 1 22 9.054V19a1 1 0 0 1-1 1h-6.826a1 1 0 0 1-1-1v-8.955L12.172 8.3a.2.2 0 0 1 .173-.3z"/>
            <path d="M13.8 13.8V19c0 .22.18.4.4.4H21a.4.4 0 0 0 .4-.4v-5.2h-7.6zm0-.2h7.6c.11 0 .2.09.2.2V19a.6.6 0 0 1-.6.6h-6.8a.6.6 0 0 1-.6-.6v-5.2c0-.11.09-.2.2-.2z"/>
            <path d="M20 15.35v-.2h1.011v.2zM20 16.35v-.2h1.011v.2zM20 17.35v-.2h1.011v.2zM14.4 15.2a.2.2 0 0 0-.2.2v1.2c0 .11.09.2.2.2h1.2a.2.2 0 0 0 .2-.2v-1.2a.2.2 0 0 0-.2-.2h-1.2zm0-.2h1.2c.22 0 .4.18.4.4v1.2a.4.4 0 0 1-.4.4h-1.2a.4.4 0 0 1-.4-.4v-1.2c0-.22.18-.4.4-.4z"/>
        </g>
    </g>
</svg>
