<svg xmlns="http://www.w3.org/2000/svg" width="24" height="24" viewBox="0 0 24 24">
    <g fill="none" fill-rule="nonzero">
        <path d="M0 0h24v24H0z"/>
        <g fill="#0061FF" transform="scale(-1 1) rotate(-20 40.185 75.858)">
            <path d="M1.4 2.483a.2.2 0 0 0-.2.2v.7c0 .11.089.2.2.2h11.85a.55.55 0 0 0 0-1.1H1.4zm0-.2h11.85a.75.75 0 1 1 0 1.5H1.4a.4.4 0 0 1-.4-.4v-.7c0-.221.178-.4.4-.4z"/>
            <path d="M14.057 3.137l4.253.052a.6.6 0 0 1 .252.058l1.531.732a.2.2 0 0 0 .256-.075l.327-.525-.292.35a.3.3 0 0 1-.372.072l-1.525-.814-4.435-.05.005.2zm7.36-.852l.067.024a.1.1 0 0 1-.057-.052l-.01.028zm.186-.017L20.519 4.01a.4.4 0 0 1-.512.15l-1.531-.732a.4.4 0 0 0-.168-.04l-4.446-.053-.016-.6 4.643.052a.2.2 0 0 1 .092.023l1.525.815a.1.1 0 0 0 .124-.024l1.255-1.504.067.024a.1.1 0 0 1 .05.147z"/>
            <circle cx="21.671" cy="1.964" r="1"/>
        </g>
        <g fill="#0061FF">
            <path d="M2.294 19.986l11.136-4.054a.75.75 0 1 1 .513 1.41L2.807 21.395a.4.4 0 0 1-.512-.239l-.24-.658a.4.4 0 0 1 .24-.512z"/>
            <path d="M2.363 20.174a.2.2 0 0 0-.12.256l.24.658a.2.2 0 0 0 .256.12l11.136-4.054a.55.55 0 0 0-.376-1.034L2.363 20.174zm-.069-.188l11.136-4.054a.75.75 0 1 1 .513 1.41L2.807 21.395a.4.4 0 0 1-.512-.239l-.24-.658a.4.4 0 0 1 .24-.512z"/>
            <path d="M18.786 13.558l-1.739 1.758-2.641.952.073.186 2.66-.954.078-.043 1.723-1.779-.154-.12zm-.017-.267l.47.366-1.878 1.939-.113.072-2.884 1.04-.22-.559 2.836-1.022 1.789-1.836zM20.647 13.128c.762-.278 1.179-.854 1.056-1.191-.123-.337-.812-.51-1.575-.233-.762.277-1.179.854-1.056 1.19.122.337.812.511 1.575.234zm.068.188c-.806.293-1.651.141-1.831-.353-.18-.494.37-1.154 1.176-1.447.806-.294 1.651-.142 1.83.353.18.494-.368 1.153-1.175 1.447z"/>
            <path d="M20.783 13.504c.947-.345 1.508-1.122 1.296-1.704-.212-.582-1.141-.817-2.088-.472-.946.344-1.507 1.121-1.295 1.703.212.582 1.141.817 2.087.473zm.069.188c-1.038.378-2.087.113-2.344-.592-.256-.705.377-1.582 1.415-1.96 1.038-.378 2.087-.113 2.344.592.256.704-.377 1.582-1.415 1.96z"/>
        </g>
        <path fill="#0061FF" d="M12.002 11.099c-.14 0-.085-.058-1.04 1.054-.67.78-1.15 1.158-1.677 1.158-.883 0-2.062-2.083-2.802-4.659-.612-2.134-.748-4.038-.252-5.04.794-1.604 1.39-1.672 3.607-1.02.881.26 1.477.376 2.164.376.688 0 1.283-.117 2.165-.376 2.217-.652 2.814-.584 3.606 1.02.486.983.46 2.944.01 5.067-.555 2.634-1.547 4.632-2.512 4.632-.334 0-.693-.155-1.1-.445a8.291 8.291 0 0 1-.833-.701c-1.117-1.04-1.148-1.066-1.336-1.066zm-.926.453zm.316-.36c.247-.262.428-.393.61-.393.316 0 .24-.064 1.54 1.146.32.298.565.507.803.676.36.257.667.39.926.39.746 0 1.695-1.912 2.22-4.394.435-2.062.46-3.966.013-4.872-.705-1.43-1.16-1.48-3.252-.865-.907.267-1.527.388-2.25.388-.722 0-1.342-.121-2.249-.388-2.091-.616-2.546-.564-3.253.865-.453.915-.322 2.757.272 4.825C7.47 11 8.607 13.01 9.285 13.01c.405 0 .838-.341 1.45-1.054.081-.094.422-.5.35-.415.128-.153.22-.258.307-.35z"/>
        <path fill="#0061FF" d="M12 5c1.105 0 1.936-.612 1.936-.889 0-.276-.831.389-1.936.389s-1.859-.665-1.859-.389c0 .277.754.889 1.859.889z"/>
    </g>
</svg>
