<svg xmlns="http://www.w3.org/2000/svg" width="24" height="24" viewBox="0 0 24 24">
    <g fill="none" fill-rule="nonzero">
        <path d="M24 0H0v24h24z"/>
        <g fill="#0061FF">
            <path d="M10.665 20.75V5.057c.003-.815.32-1.174 1.053-1.174.609 0 .96.261 1.048.82.02.192.147.306.298.306h.01l.024-.002a.255.255 0 0 0 .23-.277c-.091-.94-.65-1.447-1.61-1.447-1.065 0-1.649.625-1.653 1.773V20.75h.6zm1.907-15.985c-.076-.497-.351-.682-.854-.682-.612 0-.85.26-.853.974V20.95h-1V5.056c.005-1.25.669-1.973 1.853-1.973 1.071 0 1.709.593 1.808 1.628a.455.455 0 0 1-.452.498.496.496 0 0 1-.502-.444z"/>
            <path d="M9.862 20.895h1l.166 1.018a.2.2 0 0 1-.198.232h-.903a.2.2 0 0 1-.199-.226l.134-1.024z"/>
        </g>
        <path fill="#0061FF" d="M4.2 7.8h2.6v-.6H4.2v.6zM4 7h3v1H4V7z"/>
        <path fill="#FFF" d="M5.5 13a.5.5 0 0 1 .5.5V22H5v-8.5a.5.5 0 0 1 .5-.5z"/>
        <path fill="#0061FF" d="M5.8 21.8v-8.3a.3.3 0 0 0-.6 0v8.3h.6zM5.5 13a.5.5 0 0 1 .5.5V22H5v-8.5a.5.5 0 0 1 .5-.5zM3.597 2.137a19.695 19.695 0 0 0 3.806 0 1 1 0 0 1 1.097.995V3.5h-6v-.368a1 1 0 0 1 1.097-.995z"/>
        <path fill="#FFF" d="M3.528 10.845L3.5 10.68V3.298h1v7.298l.68 2.797.027.165v5.544a1 1 0 0 1-1-1v-4.46l-.68-2.797z"/>
        <path fill="#0061FF" d="M5.01 13.591l-.025-.15-.685-2.845V3.498h-.6l-.003 7.149.027.157.683 2.838v4.46a.8.8 0 0 0 .6.774l.003-5.285zm-1.482-2.746L3.5 10.68V3.298h1v7.298l.68 2.797.027.165v5.544a1 1 0 0 1-1-1v-4.46l-.68-2.797z"/>
        <path fill="#FFF" d="M7.473 10.845l.028-.165V3.305h-1v7.29l-.657 2.798-.028.165v5.544a1 1 0 0 0 1-1v-4.46l.657-2.797z"/>
        <path fill="#0061FF" d="M6.013 13.591l.026-.152.662-2.843V3.505h.6l.003 7.142-.027.158-.66 2.837v4.46a.8.8 0 0 1-.6.774l-.004-5.285zm1.46-2.746l.028-.165V3.305h-1v7.29l-.657 2.798-.028.165v5.544a1 1 0 0 0 1-1v-4.46l.657-2.797zM5 21h1l.166 1.018a.2.2 0 0 1-.197.232h-.904a.2.2 0 0 1-.198-.226L5 21zM20.753 10l.653.717-4.34 3.958L15 12.945l.623-.744 1.416 1.186z"/>
    </g>
</svg>
