<svg xmlns="http://www.w3.org/2000/svg" width="24" height="24" viewBox="0 0 24 24">
    <g fill="none" fill-rule="nonzero">
        <path d="M0 0h24v24H0z"/>
        <g transform="translate(2 2)">
            <path fill="#0061FF" d="M2.5 18.1a1.6 1.6 0 1 1 0-3.2 1.6 1.6 0 0 1 0 3.2zm0-.2a1.4 1.4 0 1 0 0-2.8 1.4 1.4 0 0 0 0 2.8z"/>
            <circle cx="3" cy="16" r="1" fill="#FFF"/>
            <path fill="#0061FF" d="M3 17.15a1.15 1.15 0 1 1 0-2.3 1.15 1.15 0 0 1 0 2.3zm0-.3a.85.85 0 1 0 0-1.7.85.85 0 0 0 0 1.7zM19.107 7.432l-.495-.069c.533-3.823-.058-5.825-1.685-6.117l.089-.492c1.99.356 2.657 2.62 2.09 6.678z"/>
            <path fill="#FFF" d="M18.968 7.352h-.189c.53-3.944-.021-5.963-1.848-6.265l.044-.129c1.804.176 2.466 2.292 1.993 6.394z"/>
            <path fill="#0061FF" d="M14.34 7.724l.472-.164c-1.229-3.548-1.041-5.637.466-6.345l-.213-.453c-1.818.854-2.028 3.2-.726 6.962z"/>
            <path fill="#FFF" d="M14.53 7.634h.138c-1.229-3.48-1.229-5.652.54-6.621l-.094-.11c-1.726 1.04-1.884 3.185-.583 6.731z"/>
            <path fill="#0061FF" d="M14.198 7.47l.562-.213c.784 2.076 1.605 3.055 2.395 3.015.756-.038 1.274-1.117 1.453-3.345l.598.048c-.201 2.503-.841 3.837-2.02 3.897-1.146.057-2.119-1.103-2.988-3.403z"/>
            <circle cx="17.044" cy=".974" r="1" fill="#0061FF"/>
            <circle cx="16.863" cy=".793" r="1" fill="#FFF"/>
            <circle cx="15.015" cy="1.102" r="1" fill="#0061FF"/>
            <circle cx="14.853" cy=".941" r="1" fill="#FFF"/>
            <path fill="#0061FF" d="M3.265 16.136a.3.3 0 1 1-.347-.49c1.869-1.327 4.645-.641 8.567 2.333 4.074 3.09 9.341-2.676 5.519-6.946l-.2-.224.447-.4.2.223c4.305 4.81-1.673 11.355-6.329 7.825C7.385 15.623 4.864 15 3.265 16.136z"/>
        </g>
        <path fill="#0061FF" d="M9.34 7.925c0-.269-.04-.51-.119-.725a1.45 1.45 0 0 0-.827-.88 1.626 1.626 0 0 0-.629-.12c-.227 0-.436.04-.626.12a1.43 1.43 0 0 0-.494.339 1.555 1.555 0 0 0-.326.54 2.09 2.09 0 0 0-.119.726c0 .262.04.496.119.705.078.207.187.383.326.528.138.145.302.256.493.334.19.079.4.118.627.118a1.559 1.559 0 0 0 1.099-.453c.144-.145.26-.322.346-.53.087-.208.13-.441.13-.702zm.2 0c0 .286-.048.546-.145.778-.097.232-.226.43-.389.595a1.759 1.759 0 0 1-1.241.512c-.253 0-.487-.044-.703-.132a1.618 1.618 0 0 1-.562-.381 1.744 1.744 0 0 1-.369-.597A2.175 2.175 0 0 1 6 7.925c0-.291.044-.556.131-.795.088-.239.21-.442.369-.609a1.63 1.63 0 0 1 .561-.386c.216-.09.451-.135.704-.135.253 0 .488.045.706.135a1.65 1.65 0 0 1 .938.995c.087.239.131.504.131.795zm-.955 0c0 .196-.02.36-.059.496a.916.916 0 0 1-.172.339.656.656 0 0 1-.271.194.893.893 0 0 1-.318.056.873.873 0 0 1-.316-.057.641.641 0 0 1-.266-.194.912.912 0 0 1-.167-.34 1.859 1.859 0 0 1-.056-.494c0-.201.018-.372.056-.511a.962.962 0 0 1 .166-.351.646.646 0 0 1 .266-.203.84.84 0 0 1 .317-.06c.112 0 .22.02.32.06a.66.66 0 0 1 .27.202.965.965 0 0 1 .171.35c.04.14.059.311.059.513zm-.2 0c0-.185-.017-.338-.051-.458a.771.771 0 0 0-.134-.279.46.46 0 0 0-.19-.143A.66.66 0 0 0 7.766 7a.64.64 0 0 0-.243.045.446.446 0 0 0-.184.142.768.768 0 0 0-.129.279c-.032.12-.049.274-.049.459 0 .178.017.325.049.44.031.113.074.201.128.266a.442.442 0 0 0 .184.136.674.674 0 0 0 .244.043c.088 0 .17-.015.247-.044a.456.456 0 0 0 .19-.136.721.721 0 0 0 .132-.266c.034-.115.051-.261.051-.439zm-1.708 5.38h.718a.346.346 0 0 0 .295-.146l5.248-6.884h-.693a.355.355 0 0 0-.195.043.557.557 0 0 0-.126.114l-5.247 6.873zm5.089-6.996a.757.757 0 0 1 .174-.157.542.542 0 0 1 .305-.077h.895l.08.16-5.37 7.045a.543.543 0 0 1-.455.225h-.92l-.08-.16 5.37-7.036zm1.654 5.396c0-.269-.04-.51-.119-.725a1.45 1.45 0 0 0-.827-.88 1.626 1.626 0 0 0-.629-.12c-.227 0-.436.04-.626.12a1.43 1.43 0 0 0-.494.339 1.555 1.555 0 0 0-.326.54 2.09 2.09 0 0 0-.119.726c0 .262.04.496.119.705.078.207.187.383.326.528.138.145.303.258.494.337a1.607 1.607 0 0 0 1.222 0c.192-.08.359-.192.503-.338.144-.145.26-.322.346-.53.087-.208.13-.441.13-.702zm.2 0c0 .286-.048.546-.145.778-.097.232-.226.43-.389.595a1.728 1.728 0 0 1-.567.382 1.807 1.807 0 0 1-1.377 0 1.647 1.647 0 0 1-.562-.383 1.744 1.744 0 0 1-.369-.597 2.175 2.175 0 0 1-.131-.775c0-.291.044-.556.131-.795.088-.239.21-.442.369-.609a1.63 1.63 0 0 1 .561-.386c.216-.09.451-.135.704-.135.253 0 .488.045.706.135a1.65 1.65 0 0 1 .938.995c.087.239.131.504.131.795zm-.95 0c0 .196-.02.362-.062.499a.942.942 0 0 1-.174.34.656.656 0 0 1-.271.195.893.893 0 0 1-.318.056.873.873 0 0 1-.316-.057.624.624 0 0 1-.264-.195.965.965 0 0 1-.166-.34 1.81 1.81 0 0 1-.059-.498c0-.202.02-.372.059-.512a1.02 1.02 0 0 1 .164-.35.628.628 0 0 1 .265-.203.84.84 0 0 1 .317-.06c.112 0 .22.02.32.06a.66.66 0 0 1 .27.202.995.995 0 0 1 .173.35c.042.14.062.31.062.513zm-.2 0c0-.184-.018-.337-.053-.457a.8.8 0 0 0-.137-.28.46.46 0 0 0-.19-.143.66.66 0 0 0-.245-.045.64.64 0 0 0-.243.045.429.429 0 0 0-.18.141.827.827 0 0 0-.13.281c-.035.12-.052.273-.052.458 0 .178.017.325.051.442a.771.771 0 0 0 .13.27c.05.063.11.108.18.135a.674.674 0 0 0 .244.043c.088 0 .17-.015.247-.044a.456.456 0 0 0 .19-.136.748.748 0 0 0 .135-.269 1.55 1.55 0 0 0 .053-.441zM2.69 10.395h2.39v-.83H2.69v.83zm-.1-1.03h2.59l.1.1v1.03l-.1.1H2.59l-.1-.1v-1.03l.1-.1z"/>
    </g>
</svg>
