<svg xmlns="http://www.w3.org/2000/svg" width="24" height="24" viewBox="0 0 24 24">
    <g fill="none" fill-rule="nonzero">
        <path d="M24 0H0v24h24z"/>
        <path fill="#0061FF" d="M18.813 20.756a.441.441 0 0 0-.659.387l.004.319-5.456-9.45a.22.22 0 0 1 .081-.3l.574-.33a.22.22 0 0 1 .3.079l5.469 9.473-.313-.178zm-5.566-9.564l-.573.33a.44.44 0 0 0-.162.6l5.49 9.51a.202.202 0 0 0 .377-.105l-.005-.387a.22.22 0 0 1 .33-.194l.342.196a.211.211 0 0 0 .288-.288l-5.487-9.503a.44.44 0 0 0-.6-.16zM5.28 20.715a.441.441 0 0 1 .659.387l-.005.319 5.456-9.45a.22.22 0 0 0-.08-.3l-.574-.33a.22.22 0 0 0-.3.08l-5.47 9.472.313-.178zm5.565-9.564l.574.33a.44.44 0 0 1 .162.6l-5.49 9.51a.202.202 0 0 1-.377-.105l.004-.387a.22.22 0 0 0-.33-.194l-.342.196a.211.211 0 0 1-.287-.288l5.486-9.503a.44.44 0 0 1 .6-.16z"/>
        <g fill="#0061FF">
            <path d="M11.959 5.41a.567.567 0 1 1 .633-.493.567.567 0 0 1-.633.493zm.027-.218a.348.348 0 1 0 .086-.69.348.348 0 0 0-.086.69z"/>
            <path d="M14.303 5.13c.02-.162-.355-.504-.855-.566-.5-.061-.94.172-.961.342-.021.171.35.503.85.565.5.061.946-.18.966-.342zM12.081 4.4c.162.02.504-.355.565-.856.062-.5-.171-.94-.342-.961-.17-.021-.503.35-.564.85-.062.5.18.947.341.966z"/>
            <path d="M11.751 4.494c.128-.1.105-.606-.205-1.004-.31-.397-.786-.544-.922-.438-.135.106-.108.603.202 1 .31.398.797.543.925.442zM12.39 4.567c.101.128.608.105 1.005-.205.397-.31.544-.786.438-.922-.106-.135-.603-.108-1 .203-.397.31-.542.796-.442.924z"/>
            <path d="M11.574 4.794c.02-.162-.355-.504-.855-.565-.5-.062-.941.171-.962.342-.02.17.35.503.85.564.5.062.947-.18.967-.341zM11.748 7.117c.16.02.503-.355.565-.855.06-.5-.172-.94-.342-.961-.171-.021-.503.35-.565.85-.061.5.18.946.342.966z"/>
            <path d="M13.429 6.647c.128-.1.105-.607-.205-1.004s-.786-.544-.922-.438c-.135.106-.108.603.202 1s.797.542.925.442zM10.226 6.245c.1.128.607.105 1.004-.205s.544-.786.438-.922c-.106-.135-.603-.108-1 .202-.398.31-.542.797-.442.925z"/>
            <g>
                <path d="M18.07 9.624a.567.567 0 1 1 .46-.656.567.567 0 0 1-.46.656zm-.039-.215a.348.348 0 1 0-.119-.685.348.348 0 0 0 .12.685z"/>
                <path d="M20.23 8.671c-.03-.16-.487-.378-.984-.29-.496.087-.85.438-.82.608.03.17.482.379.979.291.496-.088.852-.449.824-.609zM17.89 8.623c.161-.029.379-.487.291-.983-.087-.497-.439-.85-.608-.82-.17.03-.379.482-.291.978.087.497.449.853.609.825z"/>
                <path d="M17.603 8.81c.093-.133-.077-.611-.49-.9-.413-.29-.91-.29-1.01-.15-.098.141.074.609.487.898.412.289.92.285 1.013.152zM18.236 8.692c.133.094.611-.076.9-.49.29-.412.29-.91.15-1.009-.141-.098-.609.073-.898.486-.289.413-.285.92-.152 1.013z"/>
                <path d="M17.52 9.148c-.027-.16-.486-.378-.982-.29-.496.087-.85.439-.82.608.03.17.482.379.978.291.497-.087.853-.449.825-.609zM18.366 11.32c.16-.03.378-.487.29-.984-.087-.496-.438-.85-.607-.82-.17.03-.38.482-.292.979.088.496.45.852.61.824z"/>
                <path d="M19.837 10.378c.093-.133-.077-.611-.49-.9-.413-.29-.91-.291-1.01-.15-.098.14.074.608.486.897.413.29.92.286 1.014.153zM16.656 10.93c.133.093.611-.077.9-.49.29-.412.29-.91.15-1.009-.141-.099-.609.073-.898.486-.289.413-.285.92-.152 1.013z"/>
            </g>
            <g>
                <path d="M6.586 9.518a.567.567 0 1 1 .169-.784.567.567 0 0 1-.169.784zm-.12-.183a.348.348 0 1 0-.377-.584.348.348 0 0 0 .378.584z"/>
                <path d="M8.202 7.797c-.089-.136-.596-.158-1.018.117-.423.274-.61.736-.517.88.093.144.591.16 1.014-.114.423-.275.61-.747.52-.883zM6.03 8.666c.137-.088.158-.595-.116-1.018-.275-.423-.736-.61-.88-.517-.145.094-.16.592.114 1.014.274.423.746.61.882.521z"/>
                <path d="M5.839 8.951c.033-.159-.31-.533-.803-.637-.493-.105-.952.088-.988.257-.035.168.305.531.798.636.493.105.959-.097.993-.256zM6.376 8.596c.159.033.532-.31.637-.803.105-.493-.089-.952-.257-.988-.168-.035-.532.305-.636.798-.105.493.097.959.256.993z"/>
                <path d="M5.895 9.294c-.088-.136-.595-.157-1.018.117-.423.275-.61.736-.517.88.094.145.592.16 1.014-.114.423-.274.61-.746.521-.883zM7.522 10.962c.136-.088.158-.595-.117-1.018-.275-.422-.736-.61-.88-.516-.144.093-.16.59.114 1.014.275.422.746.609.883.52z"/>
                <path d="M8.508 9.521c.033-.159-.31-.532-.803-.637-.493-.105-.952.089-.988.257-.035.168.305.531.798.636.493.105.959-.097.993-.256zM5.795 11.273c.16.034.533-.31.638-.803.105-.493-.089-.952-.257-.987-.168-.036-.532.304-.636.797-.105.493.096.959.255.993z"/>
            </g>
            <g>
                <path d="M8.543 16.397a.567.567 0 1 1 .484-.64.567.567 0 0 1-.484.64zm-.03-.217a.348.348 0 1 0-.096-.689.348.348 0 0 0 .096.69z"/>
                <path d="M10.735 15.52c-.023-.161-.473-.395-.972-.325-.5.07-.864.41-.84.58.023.17.468.395.967.325.499-.07.867-.42.845-.58zM8.4 15.39c.16-.023.394-.473.324-.972-.07-.5-.409-.865-.579-.84-.17.023-.395.468-.325.967.07.499.419.867.58.845z"/>
                <path d="M8.106 15.567c.097-.13-.056-.613-.458-.917-.403-.303-.9-.322-1.004-.184-.104.137.051.61.454.913.403.304.91.318 1.008.188zM8.742 15.472c.13.097.614-.056.917-.458.304-.403.322-.9.185-1.004-.138-.104-.61.052-.914.454-.303.403-.317.91-.188 1.008z"/>
                <path d="M8.012 15.902c-.023-.16-.473-.395-.973-.324-.499.07-.864.408-.84.579.024.17.468.395.968.325.499-.07.867-.419.845-.58zM8.78 18.101c.162-.022.395-.473.325-.972-.07-.5-.408-.864-.579-.84-.17.024-.395.468-.325.967.07.5.419.868.58.845z"/>
                <path d="M10.283 17.212c.098-.13-.055-.614-.458-.917-.402-.303-.9-.322-1.003-.185-.104.138.051.61.454.914.402.304.91.318 1.007.188zM7.085 17.653c.13.098.614-.056.917-.458.303-.403.322-.9.185-1.004-.138-.103-.611.052-.914.454-.304.403-.318.91-.188 1.008z"/>
            </g>
            <g>
                <path d="M15.512 16.424a.567.567 0 1 1 .695-.4.567.567 0 0 1-.695.4zm.056-.212a.348.348 0 1 0 .182-.67.348.348 0 0 0-.182.67z"/>
                <path d="M17.872 16.473c.042-.157-.281-.548-.768-.679-.487-.13-.955.039-1 .205-.044.166.277.547.764.677.486.13.962-.046 1.004-.203zM15.773 15.44c.157.043.548-.28.679-.767.13-.487-.039-.956-.205-1-.166-.045-.547.276-.677.763s.046.963.203 1.005zM15.433 15.489c.141-.081.189-.586-.063-1.023-.252-.437-.703-.648-.852-.562-.149.086-.191.582.061 1.019.252.436.713.647.854.566z"/>
                <path d="M16.057 15.65c.08.14.586.189 1.022-.063.437-.252.649-.703.563-.852-.086-.15-.583-.191-1.02.06-.436.253-.647.714-.565.855zM15.216 15.76c.042-.156-.281-.547-.768-.678-.487-.13-.956.039-1 .205-.045.166.276.547.763.677s.963-.046 1.005-.203zM15.065 18.086c.157.042.548-.282.678-.769.13-.486-.039-.955-.205-1-.166-.044-.546.277-.677.764-.13.487.047.962.204 1.005z"/>
                <path d="M16.795 17.854c.141-.081.189-.586-.063-1.023-.252-.437-.703-.648-.852-.562-.149.086-.191.582.061 1.019.252.436.713.647.854.566zM13.679 17.01c.081.141.586.189 1.023-.063.436-.252.648-.703.562-.852-.086-.149-.582-.191-1.019.061-.436.252-.647.713-.566.854z"/>
            </g>
            <g>
                <path d="M9.595 5.83l-.053-.191c.19-.161.202-.256.037-.466-.16-.204-.283-.21-.487-.059l-.176-.099c.028-.27-.03-.35-.302-.383-.256-.031-.348.05-.385.298l-.193.054c-.168-.202-.264-.215-.477-.049-.19.148-.207.263-.092.438l-.096.17c-.204-.007-.274.056-.304.305-.029.234.038.327.23.371l.047.19c-.187.159-.198.254-.034.463.164.209.291.212.508.043l.01-.009.18.107-.009.047c-.036.296.02.377.299.411.257.032.349-.05.386-.299l.193-.054c.165.197.26.209.473.044.201-.157.21-.278.067-.474l.098-.174c.252.022.328-.037.36-.302.031-.25-.046-.342-.28-.381zm.5.409c-.039.308-.163.46-.401.491.09.22.03.419-.209.604-.246.192-.442.211-.633.065-.09.226-.275.327-.58.29-.347-.043-.495-.191-.5-.487-.232.108-.44.054-.635-.195-.194-.248-.213-.445-.061-.637-.181-.098-.26-.278-.227-.549.035-.286.146-.44.354-.484-.073-.207-.006-.398.22-.574.249-.194.446-.211.64-.061.089-.224.274-.324.578-.287.318.04.47.169.497.418.222-.095.425-.036.614.205.192.244.212.44.067.63.215.091.311.275.275.57zM7.459 12.627l-.053-.191c.191-.161.202-.256.038-.466-.16-.204-.284-.21-.488-.059l-.175-.1c.028-.27-.03-.348-.302-.382-.256-.031-.349.05-.386.298l-.193.053c-.167-.2-.263-.214-.477-.048-.19.148-.207.263-.092.438l-.095.17c-.205-.007-.274.056-.305.305-.028.233.038.327.23.371l.047.19c-.187.159-.197.254-.033.463.164.209.29.211.508.043l.01-.009.179.106-.008.047c-.037.296.019.378.298.412.257.032.35-.05.386-.299l.193-.054c.165.196.26.209.473.044.201-.157.21-.278.067-.474l.098-.174c.253.022.329-.037.361-.302.03-.25-.047-.343-.281-.382zm.5.408c-.038.308-.163.46-.4.492.09.219.03.419-.21.604-.245.192-.442.211-.633.065-.09.226-.274.327-.58.29-.347-.043-.495-.191-.5-.487-.231.108-.44.054-.635-.196-.194-.247-.212-.444-.061-.636-.181-.099-.26-.278-.227-.549.035-.286.147-.44.355-.484-.074-.207-.007-.398.22-.575.248-.193.445-.21.638-.06.09-.224.275-.325.58-.287.318.039.47.168.496.418.223-.095.425-.036.615.205.191.244.212.44.067.63.214.09.31.275.274.57zM16.828 5.918l-.053-.192c.191-.16.202-.256.037-.466-.16-.203-.283-.21-.487-.058l-.175-.1c.028-.27-.03-.349-.302-.382-.256-.031-.349.05-.386.298l-.193.053c-.167-.201-.263-.214-.477-.048-.19.148-.207.263-.092.437l-.095.17c-.205-.007-.274.057-.305.306-.028.233.038.326.23.37l.047.19c-.187.16-.197.255-.034.463.165.21.291.212.509.043l.01-.008.179.106-.008.047c-.037.296.019.378.298.412.257.032.35-.05.386-.3l.193-.054c.165.197.26.21.473.044.201-.156.21-.277.067-.474l.098-.173c.253.022.328-.037.361-.303.03-.25-.047-.342-.281-.38zm.5.408c-.038.308-.163.46-.401.492.091.219.03.418-.208.604-.246.191-.443.21-.634.065-.09.225-.275.327-.58.29-.347-.043-.495-.191-.5-.487-.231.108-.44.053-.635-.196-.194-.247-.212-.445-.061-.637-.181-.098-.26-.277-.227-.548.035-.286.147-.44.355-.485-.074-.207-.007-.398.22-.574.248-.193.445-.21.638-.06.09-.224.275-.325.58-.287.318.039.47.168.496.418.223-.096.425-.037.615.205.191.244.212.44.067.629.214.092.31.275.274.571zM18.94 12.675l-.054-.191c.191-.161.203-.256.038-.466-.16-.204-.284-.21-.488-.059l-.175-.1c.028-.27-.03-.348-.302-.382-.256-.031-.348.05-.385.298l-.194.053c-.167-.2-.263-.214-.477-.048-.19.148-.206.263-.092.438l-.095.17c-.205-.007-.274.056-.304.305-.03.234.038.327.23.371l.046.19c-.187.159-.197.254-.033.463.164.209.29.211.508.043l.01-.009.179.106-.008.047c-.036.297.019.378.299.412.256.032.349-.05.385-.299l.194-.054c.164.196.26.209.473.044.2-.157.21-.278.066-.474l.099-.174c.252.022.328-.037.36-.302.031-.25-.047-.343-.28-.382zm.499.408c-.038.308-.163.46-.4.492.09.22.03.419-.209.604-.246.192-.442.211-.634.065-.089.226-.274.327-.58.29-.347-.043-.495-.191-.5-.487-.231.108-.439.054-.634-.196-.195-.247-.213-.444-.062-.636-.18-.099-.26-.278-.227-.549.035-.286.147-.44.355-.484-.073-.207-.007-.398.22-.575.248-.193.446-.21.639-.06.09-.224.274-.324.579-.287.318.039.47.168.496.418.223-.095.426-.036.615.205.192.244.212.44.067.63.215.091.311.275.275.57zM13.135 16.764l-.053-.192c.191-.16.202-.256.037-.466-.16-.203-.283-.21-.487-.058l-.175-.1c.028-.27-.03-.349-.302-.382-.256-.032-.349.05-.386.297l-.193.054c-.167-.201-.263-.214-.477-.048-.19.148-.207.263-.092.437l-.095.17c-.205-.007-.274.057-.305.306-.028.233.038.326.23.37l.047.19c-.187.16-.198.254-.034.463.164.21.291.212.509.043l.01-.008.179.106-.008.047c-.037.296.019.378.298.412.257.031.35-.05.386-.3l.193-.054c.165.197.26.21.473.044.201-.156.21-.277.067-.474l.098-.173c.253.021.328-.038.361-.303.03-.25-.047-.342-.281-.381zm.5.408c-.038.308-.163.46-.401.492.091.219.03.418-.208.604-.246.191-.443.21-.634.064-.09.226-.275.328-.58.29-.347-.042-.495-.19-.5-.486-.231.108-.44.053-.635-.196-.194-.247-.212-.445-.061-.637-.181-.098-.26-.277-.227-.548.035-.287.147-.44.355-.485-.074-.207-.007-.398.22-.574.248-.193.445-.211.638-.06.09-.224.275-.325.58-.288.318.04.47.169.496.419.223-.096.425-.037.615.204.191.245.212.44.067.63.214.091.31.275.274.571z"/>
            </g>
        </g>
        <g transform="translate(8.7 7.667)">
            <path fill="#FFF" d="M3.296 3.29l-.633-1.1a.73.73 0 0 1 .633-1.095.737.737 0 0 1 .636 1.109L3.296 3.29z"/>
            <path fill="#0061FF" d="M3.839 2.145a.623.623 0 0 0-.543-.94.618.618 0 0 0-.54.928l.54.938.543-.926zm-.638 1.2l-.636-1.103A.837.837 0 0 1 3.296.986a.846.846 0 0 1 .733 1.27l-.638 1.09-.19-.001z"/>
            <path fill="#FFF" d="M3.313 3.286l.634 1.1a.73.73 0 0 1-.634 1.095.737.737 0 0 1-.635-1.109l.635-1.086z"/>
            <path fill="#0061FF" d="M2.759 4.376a.623.623 0 0 0 .543.94.618.618 0 0 0 .54-.928L3.3 3.45l-.542.926zm.638-1.2l.635 1.104a.837.837 0 0 1-.73 1.256.846.846 0 0 1-.733-1.27l.638-1.09h.19z"/>
            <path fill="#FFF" d="M3.3 3.285l.636-1.098a.73.73 0 0 1 1.265 0 .737.737 0 0 1-.642 1.106L3.3 3.285z"/>
            <path fill="#0061FF" d="M4.537 3.174a.623.623 0 0 0 .543-.94.618.618 0 0 0-1.074-.004l-.542.938 1.073.006zm-1.358.047l.638-1.101a.837.837 0 0 1 1.453.004.846.846 0 0 1-.733 1.27l-1.263-.007-.095-.166z"/>
            <path fill="#FFF" d="M3.296 3.3L2.026 3.3a.73.73 0 0 1-.631-1.096.737.737 0 0 1 1.278.003L3.296 3.3z"/>
            <path fill="#0061FF" d="M2.596 2.239a.623.623 0 0 0-1.086 0 .618.618 0 0 0 .534.932h1.083l-.531-.932zm.72 1.152H2.043a.837.837 0 0 1-.723-1.262.846.846 0 0 1 1.466 0l.625 1.098-.095.164z"/>
            <path fill="#FFF" d="M3.308 3.295l-.635 1.098a.73.73 0 0 1-1.266 0 .737.737 0 0 1 .643-1.106l1.258.008z"/>
            <path fill="#0061FF" d="M3.133 3.358L2.06 3.35a.623.623 0 0 0-.543.94.618.618 0 0 0 1.074.004l.542-.937zm.285-.054L2.78 4.406a.837.837 0 0 1-1.453-.005.846.846 0 0 1 .733-1.27l1.263.008.095.165z"/>
            <path fill="#FFF" d="M3.313 3.28h1.269a.73.73 0 0 1 .632 1.097.737.737 0 0 1-1.278-.004l-.623-1.094z"/>
            <path fill="#0061FF" d="M4.001 4.286a.623.623 0 0 0 1.086 0 .618.618 0 0 0-.534-.932H3.47L4 4.285zm-.72-1.152h1.273a.837.837 0 0 1 .723 1.262.846.846 0 0 1-1.467 0l-.625-1.098.096-.164z"/>
            <ellipse cx="3.3" cy="3.286" fill="#FFF" rx="1" ry="1"/>
            <path fill="#0061FF" d="M3.3 3.943a.659.659 0 0 1-.66-.657c0-.363.295-.657.66-.657.365 0 .66.294.66.657a.659.659 0 0 1-.66.657zm0-.22a.44.44 0 1 0 .002-.877.44.44 0 0 0-.002.878z"/>
        </g>
    </g>
</svg>
