<svg xmlns="http://www.w3.org/2000/svg" width="24" height="24" viewBox="0 0 24 24">
    <g fill="none" fill-rule="evenodd">
        <path d="M24 0H0v24h24z"/>
        <g fill="#0061FF" fill-rule="nonzero">
            <path d="M4.943 11.103l.035-.077 6.863-5.863h.13l6.897 5.94v9.555l-.1.1H5.043l-.1-.1v-9.555zm.2.046v9.409H18.67l.034-9.38-6.797-5.807-6.763 5.778zm6.763-6.667l-7.438 6.31v10.44h14.876l.034-10.365-7.472-6.385zm.065-.207l7.572 6.516v10.542l-.1.1H4.368l-.1-.1.035-10.618 7.538-6.44h.13z"/>
            <path d="M11.859 3.407h.134l8.7 7.83.317-.353-9.084-8.176-9.085 8.176.318.353 8.7-7.83zm.067.209l-8.708 7.836-.14-.007-.452-.502.007-.141 9.226-8.303h.134l9.225 8.303.008.141-.452.502-.14.007-8.708-7.836zM17.08 4.544h2.7v4.5l-2.7-2.572z"/>
        </g>
        <path fill="#0061FF" fill-rule="nonzero" d="M5.333 3.667H7v1.666H5.333V7H3.667V5.333H2V3.667h1.667V2h1.666v1.667z"/>
        <path fill="#0061FF" d="M15.49 14.43h-1.77l-.526.687-.41-2.188-.954 1.263-.447-1.006-1.16 1.244h-1.72a2.139 2.139 0 0 1-.461-1.79c.187-.9 1.014-1.618 1.952-1.64h.04s.149.003.261.018c.788.104 1.484.706 1.701 1.503l.026-.065c.285-.924 1.231-1.579 2.23-1.435.83.12 1.55.807 1.712 1.657a2.118 2.118 0 0 1-.412 1.69l-.061.062zm-.486.5l-2.984 3.063c-.012.009-.025.01-.04 0L8.99 14.93h1.47l.773-.85.485 1.089.783-1.036.405 2.163 1.07-1.366h1.028z"/>
    </g>
</svg>
