<svg xmlns="http://www.w3.org/2000/svg" width="24" height="24" viewBox="0 0 24 24">
    <g fill="none" fill-rule="nonzero">
        <path d="M24 0H0v24h24z"/>
        <path fill="#0061FF" d="M16.017 3.781h.199l.033 7.246c.002.427.35.773.777.773a.772.772 0 0 0 .773-.772v-.315c-.001.001-.005-.002-.028-.022-.117-.105-.171-.188-.171-.336 0-.155.072-.241.194-.293a.844.844 0 0 0 .015-.007c-.005.004-.01.003-.01-.052 0-.048.005-.049.01-.046a.275.275 0 0 1-.026-.007c-.13-.042-.216-.117-.216-.276 0-.13.043-.2.162-.344.055-.066.07-.09.07-.09V4.027a1.8 1.8 0 0 0-1.8-1.8h-1.051c-.902 0-1.645.68-1.744 1.555h2.813zM17.027 12a.977.977 0 0 1-.978-.972l-.032-7.047h-3.024c0-1.08.875-1.955 1.955-1.955h1.05a2 2 0 0 1 2 2V9.24c0 .154-.231.28-.231.433 0 .15.232 0 .232.33 0 .328-.2.168-.2.351 0 .183.2.185.2.355v.318a.972.972 0 0 1-.973.972z"/>
        <path fill="#FFF" d="M13.04 6.005v14.997a.97.97 0 0 0 1.941 0v-7.907a3.53 3.53 0 0 1 1.78-3.067l1.127-.642a.2.2 0 0 0-.1-.373h-1.554a.2.2 0 0 1-.2-.2v-.587c0-.11.09-.2.2-.2h1.78a1 1 0 0 0 1-1v-.021a1 1 0 0 0-1-1H13.04z"/>
        <path fill="#0061FF" d="M13.24 21.002a.77.77 0 1 0 1.541 0v-7.907a3.73 3.73 0 0 1 1.882-3.24l1.126-.642h-1.555a.4.4 0 0 1-.4-.4v-.587c0-.22.18-.4.4-.4h1.78a.8.8 0 0 0 .8-.8.805.805 0 0 0-.8-.821H13.24v14.797zm-.2-14.997h4.974a1 1 0 0 1 1 1c0 .573-.448 1.021-1 1.021h-1.78a.2.2 0 0 0-.2.2v.587c0 .11.09.2.2.2h1.555a.2.2 0 0 1 .099.373l-1.126.642a3.53 3.53 0 0 0-1.781 3.067v7.907a.97.97 0 1 1-1.94 0V6.005z"/>
        <path fill="#0061FF" d="M13.441 5.02h.157c.21 0 .156.138.42.138.263 0 .292-.138.526-.138.234 0 .189.138.468.138.278 0 .321-.138.557-.138.236 0 .472.138.472.138v.862h-3v-.6c0-.221.18-.4.4-.4z"/>
        <path fill="#FFF" d="M14 3h2.055a.5.5 0 0 1 0 1h-.047c-.247 0-.236.15-.494.15S15.233 4 14.998 4s-.21.15-.47.15-.266-.15-.52-.15c-.253 0-.256.15-.507.15A.965.965 0 0 1 13 4a1 1 0 0 1 1-1z"/>
        <path fill="#0061FF" d="M13.501 3.95c.062 0 .083-.007.15-.046a.614.614 0 0 1 .357-.104c.146 0 .23.03.354.1.073.042.098.05.166.05a.18.18 0 0 0 .132-.04l.007-.005a.521.521 0 0 1 .33-.105c.135 0 .218.029.337.095l.01.006c.072.04.102.05.17.05.065 0 .084-.008.145-.045a.577.577 0 0 1 .349-.106h.047a.3.3 0 0 0 0-.6H14a.8.8 0 0 0-.792.684c.1.045.197.067.293.067zM14 3h2.055a.5.5 0 0 1 0 1h-.047c-.247 0-.236.15-.494.15S15.233 4 14.998 4s-.21.15-.47.15-.266-.15-.52-.15c-.253 0-.256.15-.507.15A.965.965 0 0 1 13 4a1 1 0 0 1 1-1zM16 8l1-.176h1.233c.11 0 .2.09.2.2v.22a.094.094 0 0 1-.094.094.094.094 0 0 0-.093.094v.13c0 .052.041.094.093.094s.094.042.094.094v.258a.2.2 0 0 1-.2.2h-.71L16 9.038V8zM14.031 19.458a.3.3 0 0 0-.3.3v1a.3.3 0 0 0 .6 0v-1a.3.3 0 0 0-.3-.3zm0-.2a.5.5 0 0 1 .5.5v1a.5.5 0 1 1-1 0v-1a.5.5 0 0 1 .5-.5zM14.031 7.213a.3.3 0 0 0-.3.3V17.5a.3.3 0 0 0 .6 0V7.513a.3.3 0 0 0-.3-.3zm0-.2a.5.5 0 0 1 .5.5V17.5a.5.5 0 1 1-1 0V7.513a.5.5 0 0 1 .5-.5z"/>
        <g>
            <path fill="#0061FF" d="M6.822 13.418c.114-.155.352-.232.713-.232.362 0 .594.077.698.232l.326.24a.572.572 0 0 1 .133.782c-.199.294-.291.648-.26 1.001l.439 5.065A1.376 1.376 0 0 1 7.5 22a1.375 1.375 0 0 1-1.37-1.494l.44-5.058c.03-.35-.063-.701-.262-.992a.556.556 0 0 1 .135-.766l.38-.272z"/>
            <path fill="#0061FF" d="M7.348 4.38v9.082h.356V4.38l.224-.935-.224-.765h-.356l-.218.765.218.935zm-.2.023l-.213-.913.003-.1.26-.91h.656l.266.908.003.103-.219.889v9.282h-.756v-9.26z"/>
            <path fill="#FFF" d="M7.5 15.2a.3.3 0 0 0-.3.3v5a.3.3 0 0 0 .6 0v-5a.3.3 0 0 0-.3-.3zm0-.2a.5.5 0 0 1 .5.5v5a.5.5 0 1 1-1 0v-5a.5.5 0 0 1 .5-.5z"/>
        </g>
    </g>
</svg>
