<svg xmlns="http://www.w3.org/2000/svg" width="24" height="24" viewBox="0 0 24 24">
    <g fill="none" fill-rule="nonzero">
        <path d="M24 0H0v24h24z"/>
        <path fill="#0061FF" d="M9.3 17.8V4.25a.05.05 0 1 0-.1 0V17.8h.1zM9.25 4a.25.25 0 0 1 .25.25V18H9V4.25A.25.25 0 0 1 9.25 4z"/>
        <g transform="translate(2 10)">
            <path fill="#FFF" d="M1 7h18V4.5a.5.5 0 1 1 1 0V8H0V.5a.5.5 0 1 1 1 0V7z"/>
            <path fill="#0061FF" d="M19.8 7.8V4.5a.3.3 0 0 0-.6 0v2.7H.8V.5a.3.3 0 1 0-.6 0v7.3h19.6zM1 7h18V4.5a.5.5 0 1 1 1 0V8H0V.5a.5.5 0 1 1 1 0V7z"/>
            <path fill="#0061FF" d="M2 4a1 1 0 0 0-1 1v2h17V5a1 1 0 0 0-1-1H2zm0-.2h15A1.2 1.2 0 0 1 18.2 5v2.2H.8V5A1.2 1.2 0 0 1 2 3.8z"/>
            <circle cx="3.7" cy="10" r="1" fill="#0061FF"/>
            <circle cx="15.3" cy="10" r="1" fill="#0061FF"/>
            <circle cx="15.3" cy="10" r="1" fill="#0061FF"/>
            <path fill="#FFF" d="M16.198 7.803H15v2.08c0 .174.142.316.316.316a.541.541 0 0 0 .472-.276l.128-.227c.185-.33.282-.701.282-1.08v-.813z"/>
            <path fill="#0061FF" d="M15.998 8.616c0 .344-.088.682-.257.982l-.127.227a.341.341 0 0 1-.298.174.116.116 0 0 1-.116-.117V8.003h.798v.613zm.2-.813H15v2.08c0 .174.142.316.316.316a.541.541 0 0 0 .472-.276l.128-.227c.185-.33.282-.701.282-1.08v-.813z"/>
            <path fill="#FFF" d="M3 7.802h1.198v2.08a.316.316 0 0 1-.316.317.541.541 0 0 1-.471-.276l-.128-.227A2.201 2.201 0 0 1 3 8.616v-.814z"/>
            <path fill="#0061FF" d="M3.2 8.616c0 .344.089.682.257.982l.128.227c.06.107.174.174.297.174a.116.116 0 0 0 .116-.117v-1.88H3.2v.614zM3 7.802h1.198v2.08a.316.316 0 0 1-.316.317.541.541 0 0 1-.471-.276l-.128-.227A2.201 2.201 0 0 1 3 8.616v-.814zM5 3.2H3a.8.8 0 0 0-.775.6h3.55A.8.8 0 0 0 5 3.2zM3 3h2a1 1 0 0 1 1 1H2a1 1 0 0 1 1-1z"/>
            <path fill="#0061FF" d="M7 3h9a3 3 0 0 1 3 3v1H5.97V5 3.768C5.97 3.22 6.44 3 7 3z"/>
            <path fill="#FFF" d="M4.97 6.1l9.273.056c.2.083.347.177.439.283.092.106.198.302.318.587V9H4.135V6.973c.054-.274.12-.458.196-.554.076-.095.289-.201.638-.32z"/>
            <path fill="#0061FF" d="M14.8 8.8V7a.8.8 0 0 0-.8-.8H5a.8.8 0 0 0-.8.8v1.8h10.6zM5 6h9a1 1 0 0 1 1 1v2H4V7a1 1 0 0 1 1-1z"/>
        </g>
        <path fill="#0061FF" d="M20.753 5l.653.717-4.34 3.958L15 7.945l.623-.744 1.416 1.186zM6.9 5h1.2c.22 0 .4.18.4.4V7a1 1 0 1 1-2 0V5.4c0-.22.18-.4.4-.4zM10.4 5.2a.2.2 0 0 0-.2.2V8a.8.8 0 1 0 1.6 0V5.4a.2.2 0 0 0-.2-.2h-1.2zm0-.2h1.2c.22 0 .4.18.4.4V8a1 1 0 0 1-2 0V5.4c0-.22.18-.4.4-.4z"/>
    </g>
</svg>
