<svg xmlns="http://www.w3.org/2000/svg" width="24" height="24" viewBox="0 0 24 24">
    <g fill="none" fill-rule="nonzero">
        <path d="M0 0h24v24H0z"/>
        <path fill="#0061FF" d="M4 5.2a.8.8 0 0 0-.8.8v11a.8.8 0 0 0 .8.8h5a.8.8 0 0 0 .8-.8V6a.8.8 0 0 0-.8-.8H4zM4 5h5a1 1 0 0 1 1 1v11a1 1 0 0 1-1 1H4a1 1 0 0 1-1-1V6a1 1 0 0 1 1-1z"/>
        <path fill="#0061FF" d="M3.5 6.5h6V16h-6zM6.5 17.5a.5.5 0 1 0 0-1 .5.5 0 0 0 0 1zm0 .2a.7.7 0 1 1 0-1.4.7.7 0 0 1 0 1.4z"/>
        <g fill="#0061FF">
            <path d="M20 15h-9v.244h8.81v1.548H11V17h9v-2zm-.39 1.592v-1.148H10.8V14.8h9.4v2.4h-9.4v-.608h8.81z"/>
            <path d="M11.161 15.334h.2v1.33h-.2zM21.645 14.405h-.2v-.884h.2z"/>
            <path d="M21.8 13.2h-8.6v1.6h8.6v-.229h-8.356v-1.139H21.8V13.2zm.2-.2v.632h-8.356v.74H22V15h-9v-2h9z"/>
        </g>
        <g fill="#0061FF">
            <path d="M20 11h-9v.244h8.81v1.548H11V13h9v-2zm-.39 1.592v-1.148H10.8V10.8h9.4v2.4h-9.4v-.608h8.81z"/>
            <path d="M11.161 11.334h.2v1.33h-.2zM20.645 10.405h-.2v-.884h.2z"/>
            <path d="M20.8 9.2h-8.6v1.6h8.6v-.229h-8.356V9.432H20.8V9.2zM21 9v.632h-8.356v.74H21V11h-9V9h9z"/>
        </g>
        <g fill="#FFF">
            <path d="M7.695 10.301h.55v.32h-.55v.55h-.32v-.55h-.522v-.32h.522V9.78h.32v.522zM5.484 12.475c-.596-.6-.497-1.845-.073-2.283.118-.128.308-.064.522.151.2.202.294.442.224.584-.1.167-.215.208-.523.237-.018 0-.05.147-.033.312a1.05 1.05 0 0 0 .93.94c.168.02.313-.012.318-.043a.865.865 0 0 0 .008-.067l.006-.089a.378.378 0 0 1 .198-.336c.143-.091.334-.024.513.153.248.246.326.447.145.6-.457.476-1.605.476-2.235-.159z"/>
        </g>
    </g>
</svg>
