<svg xmlns="http://www.w3.org/2000/svg" width="24" height="24" viewBox="0 0 24 24">
    <g fill="none" fill-rule="nonzero">
        <path d="M0 0h24v24H0z"/>
        <path fill="#0061FF" d="M4 5.2a.8.8 0 0 0-.8.8v11a.8.8 0 0 0 .8.8h5a.8.8 0 0 0 .8-.8V6a.8.8 0 0 0-.8-.8H4zM4 5h5a1 1 0 0 1 1 1v11a1 1 0 0 1-1 1H4a1 1 0 0 1-1-1V6a1 1 0 0 1 1-1z"/>
        <path fill="#0061FF" d="M3.5 6.5V16h6V6.5h-6zm-.2-.2h6.4v9.9H3.3V6.3zM6.5 17.5a.5.5 0 1 0 0-1 .5.5 0 0 0 0 1zm0 .2a.7.7 0 1 1 0-1.4.7.7 0 0 1 0 1.4z"/>
        <g fill="#0061FF">
            <path d="M7.643 10.279h.55v.32h-.55v.55h-.32v-.55H6.8v-.32h.522v-.522h.32v.522zM5.432 12.452c-.596-.6-.497-1.844-.073-2.282.118-.128.308-.065.522.15.2.202.294.443.224.584-.1.167-.215.209-.523.237-.018 0-.05.147-.033.312a1.05 1.05 0 0 0 .93.941c.168.02.313-.013.318-.044a.865.865 0 0 0 .008-.067l.006-.088a.378.378 0 0 1 .198-.336c.143-.092.334-.024.513.152.248.246.326.447.145.6-.457.477-1.605.477-2.235-.159z"/>
        </g>
        <path fill="#0061FF" d="M16.266 16.703c.667 0 1.287.66 1.917.66 1.277 0 2.296-2.024 3.032-3.99.563-1.506.306-4.041-.998-4.987-1.514-1.096-2.36.554-3.989.554-2.029 0-2.029-1.486-3.715-.721-1.56.708-1.79 3.314-1.247 5.153.624 2.11 2.048 3.99 3.374 3.99.89 0 1.057-.66 1.626-.66z"/>
        <path fill="#FFF" d="M17.085 5.841l.345.48c-.76.68-1.127 1.883-1.127 2.816h-.692c0-1.223.507-2.43 1.474-3.296z"/>
        <path fill="#0061FF" d="M13.602 4.83c-.494 0-1.014.152-1.398.368.608-.09 1.383.388 2.204 1.249.6.628 1.6.755 1.768.43-.01-1.405-1.051-2.048-2.574-2.048zm2.774 2.07l-.008.038c-.214.515-1.411.374-2.105-.353-.84-.88-1.62-1.333-2.155-1.158a.606.606 0 0 1-.206.04c-.097-.006-.16-.087-.118-.18.034-.076.151-.168.322-.264a3.19 3.19 0 0 1 1.496-.394c1.627 0 2.774.714 2.774 2.27z"/>
        <path fill="#FFF" d="M14.959 9.208a.133.133 0 0 1 .163-.019c.227.14.472.228.735.262.445.057.553-.075.744-.058a.094.094 0 0 1 .024.183 1.713 1.713 0 0 1-.806.11 1.789 1.789 0 0 1-.85-.335.094.094 0 0 1-.01-.143z"/>
        <path fill="#0061FF" d="M15.815 8.937h.293c.047-.972.434-1.998 1.058-2.64l-.11-.153a4.211 4.211 0 0 0-1.24 2.793zm1.27-3.096l.345.48c-.76.68-1.127 1.883-1.127 2.816h-.692c0-1.223.507-2.43 1.474-3.296z"/>
        <path fill="#0061FF" d="M16.294 6.86l-.17.105a2.999 2.999 0 0 0-.198-.273 4.53 4.53 0 0 0-.59-.607c-.868-.742-1.904-1.073-3.097-.767l-.05-.193c1.263-.324 2.363.027 3.277.808.237.202.442.418.616.634.104.13.175.233.212.292z"/>
    </g>
</svg>
