<svg xmlns="http://www.w3.org/2000/svg" width="24" height="24" viewBox="0 0 24 24">
    <g fill="none" fill-rule="nonzero">
        <path d="M24 0H0v24h24z"/>
        <path fill="#0061FF" d="M7.35 17.708c-.157 0-.288.111-.3.255l-.277 3.846c0 .058.045.099.1.099h4.275c.064-.005.104-.05.1-.1l-.317-3.848c-.014-.143-.143-.252-.299-.252H7.35zm0-.25h3.282c.26 0 .476.183.498.42l.317 3.914c.014.152-.108.286-.273.299l-.026.001H6.873c-.166 0-.3-.124-.3-.276l.001-.02.277-3.912c.02-.24.237-.426.499-.426zM6.126 11.479c0-.017-.05-.115-.156-.273-.02-.029-.324-.463-.424-.616-.296-.45-.49-.841-.586-1.24-.037-.158-.075-.218-.087-.222 0 0-.036.013-.103.06-.03.021-.061.045-.108.084-.231.187-.28.22-.41.23-.023.002-.092.257-.097.679-.005.378.037.864.088 1.175.137.839.763 1.895 1.88 3.156-.007-1.486-.006-2.497.003-3.033zm.2.003c-.01.595-.01 1.778 0 3.55-1.362-1.458-2.122-2.673-2.28-3.644-.08-.478-.228-2.053.19-2.085.256-.02.72-.83.919 0 .239.998 1.176 1.887 1.17 2.18z"/>
        <path fill="#FFF" d="M4.86 7.395c.835-1.258 1.083.825.498 1.583-.18.234-1.097 1.24-1.313.22-.104-.493-.018-.544.816-1.803z"/>
        <path fill="#0061FF" d="M5.027 7.506c-.817 1.233-.797 1.2-.815 1.38a.881.881 0 0 0 .029.271c.067.315.155.349.378.226.197-.109.439-.343.58-.527.234-.303.338-.938.246-1.386-.035-.172-.09-.264-.117-.27-.035-.008-.145.072-.3.306zm-.166-.11c.834-1.26 1.082.824.497 1.582-.18.234-1.097 1.24-1.313.22-.104-.493-.018-.544.816-1.803zM9.98 2.741a.43.43 0 0 1 .407.452l-.04.777-.86-.045.04-.777a.43.43 0 0 1 .453-.407zM11.64 3.658a.425.425 0 0 1 .402.452l-.069 1.048-.859-.045.069-1.048a.436.436 0 0 1 .458-.407zM6.703 2.905a.43.43 0 0 1 .43.43v.778h-.86v-.778a.43.43 0 0 1 .43-.43zM8.126 2a.43.43 0 0 1 .43.43v1.377h-.86V2.43a.43.43 0 0 1 .43-.43z"/>
        <path fill="#FFF" d="M11.253 4.86l.273-.251.38.19.035 1.491a.2.2 0 0 1-.213.204l-.554-.038a.2.2 0 0 1-.182-.238l.261-1.358z"/>
        <path fill="#0061FF" d="M11.583 4.7a.259.259 0 0 0-.258.23l-.153 1.325.58.04.031-1.39a.202.202 0 0 0-.2-.205zm0-.2a.4.4 0 0 1 .4.41l-.031 1.39a.2.2 0 0 1-.214.195l-.58-.04a.2.2 0 0 1-.185-.223l.154-1.326a.459.459 0 0 1 .456-.406z"/>
        <path fill="#FFF" d="M9.566 3.993l.275-.244.468.268v1.757a.2.2 0 0 1-.21.2l-.573-.03a.2.2 0 0 1-.187-.226l.227-1.725z"/>
        <path fill="#0061FF" d="M9.911 3.849a.243.243 0 0 0-.258.224l-.128 1.67.589.031.038-1.66a.259.259 0 0 0-.24-.265zm.441.27l-.038 1.66a.2.2 0 0 1-.21.195l-.59-.03a.2.2 0 0 1-.189-.211l.128-1.676a.443.443 0 0 1 .472-.408.459.459 0 0 1 .427.47z"/>
        <path fill="#FFF" d="M6.35 3.953l.306-.284.38.211.148 1.916a.2.2 0 0 1-.2.216h-.568a.2.2 0 0 1-.2-.215l.134-1.844z"/>
        <path fill="#0061FF" d="M6.701 3.796a.244.244 0 0 0-.244.237l-.05 1.779h.588l-.05-1.78a.244.244 0 0 0-.244-.236zm0-.2c.24 0 .437.19.444.431l.05 1.78a.2.2 0 0 1-.2.205h-.589a.2.2 0 0 1-.2-.2l.05-1.785a.444.444 0 0 1 .445-.431z"/>
        <path fill="#FFF" d="M7.801 3.844l.317-.247.365.14.12 2.046a.2.2 0 0 1-.2.211h-.57a.2.2 0 0 1-.2-.217l.168-1.933z"/>
        <path fill="#0061FF" d="M8.127 3.697a.247.247 0 0 0-.248.24l-.058 1.857h.59L8.37 3.935a.243.243 0 0 0-.243-.238zm0-.2c.24 0 .438.193.443.434l.04 1.859a.2.2 0 0 1-.195.204h-.594a.2.2 0 0 1-.2-.2l.058-1.863a.447.447 0 0 1 .448-.434zM6.589 8.981c.183-.05.36-.09.532-.119l-.178-1.849a.2.2 0 0 0-.199-.18h-.072a.2.2 0 0 0-.199.178L6.256 9.08c.103-.032.214-.065.333-.098zm-.272.29a.2.2 0 0 1-.153-.014l.092-.178.06.191zm0-.001a.2.2 0 0 1-.26-.212l.218-2.068a.4.4 0 0 1 .397-.358h.072a.4.4 0 0 1 .398.362l.178 1.849a.2.2 0 0 1-.165.216 5.44 5.44 0 0 0-.65.153l-.188.058zM8.165 8.661l.44-.039L8.4 6.858A.2.2 0 0 0 8.2 6.68h-.13a.2.2 0 0 0-.2.188l-.107 1.856c.159-.032.292-.054.4-.064zm-.094-2.18h.13a.4.4 0 0 1 .397.354l.206 1.764a.2.2 0 0 1-.181.223 60.96 60.96 0 0 0-.44.038c-.1.01-.226.03-.379.061a.2.2 0 0 1-.24-.207l.108-1.856a.4.4 0 0 1 .4-.377zM9.728 8.64l.403.07-.166-1.681a.2.2 0 0 0-.175-.179l-.062-.007a.194.194 0 0 0-.215.164l-.23 1.584c.152.007.3.023.445.048zm-.254.16l-.2-.009a.2.2 0 0 1-.188-.229l.23-1.583a.394.394 0 0 1 .435-.335l.062.007a.4.4 0 0 1 .351.358l.166 1.681a.2.2 0 0 1-.234.217l-.402-.07a3.326 3.326 0 0 0-.225-.032l.005-.004zM11.641 7.369a.2.2 0 0 0-.169-.18l-.296-.046-.302 1.697c.2.038.37.077.51.119.116.034.25.082.405.145L11.64 7.37zm-.435-.424l.296.045a.4.4 0 0 1 .338.362l.148 1.736a.2.2 0 0 1-.274.202 4.242 4.242 0 0 0-.386-.14 4.963 4.963 0 0 0-.49-.113.2.2 0 0 1-.16-.232l.301-1.697a.2.2 0 0 1 .227-.163z"/>
        <path fill="#FFF" d="M6.121 9.724C7.341 9.241 8.301 9 9 9c.7 0 1.675.241 2.925.724v4.058c0 .593-.115 1.049-.344 1.368l-1.111.743c-1.059.04-1.942.04-2.649 0-.707-.04-1.274-.54-1.7-1.5V9.725z"/>
        <path fill="#0061FF" d="M9 9.2c-.65 0-1.586.188-2.8.565V14A1.8 1.8 0 0 0 8 15.8h2a1.8 1.8 0 0 0 1.8-1.8V9.765C10.586 9.388 9.65 9.2 9 9.2zm3.05.682v4.036a2.097 2.097 0 0 1-2.097 2.096H8.047a2.097 2.097 0 0 1-2.097-2.096V9.882c0-.167.109-.315.268-.364 1.19-.37 2.116-.556 2.782-.556.665 0 2.488.425 2.781.556.294.13.268.265.268.364z"/>
        <path fill="#0061FF" stroke="#0061FF" stroke-width=".2" d="M11.14 6.28l-.06.66.636.06.097-.679-.674-.041zM6.31 5.845l.11.756h.552l.1-.756H6.31z"/>
        <path fill="#0061FF" d="M9.453 5.829l-.035.67a.2.2 0 0 0 .189.21l.342.017a.2.2 0 0 0 .21-.189l.035-.67-.741-.038zm.01-.2l.742.039a.2.2 0 0 1 .19.21l-.036.67a.4.4 0 0 1-.42.378l-.342-.018a.4.4 0 0 1-.379-.42l.035-.67a.2.2 0 0 1 .21-.189z"/>
        <path fill="#0061FF" d="M9.373 5.797l.93.092-.11.869-.782-.047zM7.759 5.694v.67c0 .11.09.2.2.2h.343a.2.2 0 0 0 .2-.2v-.67h-.743zm0-.2h.743c.11 0 .2.09.2.2v.67a.4.4 0 0 1-.4.4h-.343a.4.4 0 0 1-.4-.4v-.67c0-.11.09-.2.2-.2zM11.105 6.225l-.047.669a.2.2 0 0 0 .185.213l.342.024a.2.2 0 0 0 .214-.185l.046-.669-.74-.052zm.013-.2l.741.053a.2.2 0 0 1 .186.213l-.047.669a.4.4 0 0 1-.427.37l-.342-.023a.4.4 0 0 1-.37-.427l.046-.669a.2.2 0 0 1 .213-.185zM6.32 5.795v.67c0 .11.089.2.2.2h.342a.2.2 0 0 0 .2-.2v-.67h-.743zm0-.2h.742c.11 0 .2.09.2.2v.67a.4.4 0 0 1-.4.4h-.343a.4.4 0 0 1-.4-.4v-.67c0-.11.09-.2.2-.2z"/>
        <path fill="#0061FF" stroke="#0061FF" stroke-width=".2" d="M7.82 5.722v.745h.648l.018-.745H7.82z"/>
        <path fill="#0061FF" d="M7.2 16.19h3.6c.11 0 .2.09.2.2v.6a.2.2 0 0 1-.2.2H7.2a.2.2 0 0 1-.2-.2v-.6c0-.11.09-.2.2-.2zM20.753 10l.653.717-4.34 3.958L15 12.945l.623-.744 1.416 1.186z"/>
    </g>
</svg>
