<svg xmlns="http://www.w3.org/2000/svg" width="24" height="24" viewBox="0 0 24 24">
    <g fill="none" fill-rule="nonzero">
        <path d="M24 0H0v24h24z"/>
        <g transform="translate(1 1)">
            <path fill="#0061FF" d="M17 20.3a1.3 1.3 0 1 0 0-2.6 1.3 1.3 0 0 0 0 2.6zm0 .7a2 2 0 1 1 0-4 2 2 0 0 1 0 4zM7 2a1 1 0 0 1 1 1v6.124H7V2z"/>
            <path fill="#FFF" d="M6.599 10.796h10.053l.27.634-.09 1.425H6.598z"/>
            <path fill="#0061FF" d="M6.799 12.655h9.847l.092-1.146-.218-.513H6.799v1.659zm-.2-1.859h10.053l.27.634-.09 1.425H6.598v-2.059zM8.327 9.48a1 1 0 0 1 1-1h5a1 1 0 0 1 1 1h-7z"/>
            <path fill="#0061FF" d="M16.801 13.16v-.3h-10v.3h10zm-10.2.2v-.7h10.4v.7h-10.4zM15.215 15.722c-.448.2-.856.58-1.225 1.145l-.168.09H5.506a.15.15 0 1 0 0 .3h8.51a.15.15 0 0 0 .128-.072c.36-.596.758-.995 1.193-1.19.398-.177.883-.273 1.455-.289l.001-.3c-.618.016-1.143.122-1.578.316zm-.082-.183c.512-.228 1.132-.338 1.861-.335l-.003.7c-.636-.003-1.16.09-1.572.274-.39.174-.76.54-1.104 1.11a.35.35 0 0 1-.3.17l-8.509-.001a.35.35 0 0 1 0-.7h8.316c.387-.59.822-1 1.311-1.218z"/>
            <path fill="#0061FF" d="M17.212 13.825c.688-.066 1.22.059 1.593.38.36.31.56.712.604 1.215l.3-.002c-.045-.593-.283-1.076-.708-1.441-.436-.375-1.046-.526-1.831-.45l.042.298zm-.171.221l-.097-.693c.925-.13 1.662.02 2.187.472.519.446.782 1.052.787 1.792l-.7.004c-.003-.543-.183-.955-.543-1.265-.354-.304-.892-.414-1.634-.31z"/>
            <path fill="#FFF" d="M6.604 9.992v-.7h8.368a2.35 2.35 0 0 1 2.35 2.35v7.228a.35.35 0 0 1-.7 0v-7.228a1.65 1.65 0 0 0-1.65-1.65H6.604z"/>
            <path fill="#0061FF" d="M14.972 9.792a1.85 1.85 0 0 1 1.85 1.85v7.228a.15.15 0 1 0 .3 0v-7.228a2.15 2.15 0 0 0-2.15-2.15H6.804v.3h8.168zm-8.368.2v-.7h8.368a2.35 2.35 0 0 1 2.35 2.35v7.228a.35.35 0 0 1-.7 0v-7.228a1.65 1.65 0 0 0-1.65-1.65H6.604z"/>
            <path fill="#0061FF" d="M6.302 16.954l-.2-.2h.2v.2zm.3-.2v-14.4-.076C6.6 1.18 6.404.85 5.726.85c-.57 0-.876.399-.876 1.167 0 .034.027.06.06.06h.18a.06.06 0 0 0 .06-.06c0-.585.167-.867.576-.867.463 0 .575.277.576 1.129v14.475h.3zM5.35 2.017a.26.26 0 0 1-.26.26h-.18a.26.26 0 0 1-.26-.26c0-.85.368-1.367 1.076-1.367.87 0 1.074.523 1.076 1.628v14.676h-.7v-14.6-.075c-.001-.748-.072-.929-.376-.929-.26 0-.376.162-.376.667z"/>
            <path fill="#FFF" d="M6.462 21.489a6 6 0 1 1 0-12 6 6 0 0 1 0 12zm0-1a5 5 0 1 0 0-10 5 5 0 0 0 0 10z"/>
            <path fill="#0061FF" d="M6.462 21.289a5.8 5.8 0 1 0 0-11.6 5.8 5.8 0 0 0 0 11.6zm0 .2a6 6 0 1 1 0-12 6 6 0 0 1 0 12z"/>
            <path fill="#0061FF" d="M6.462 20.489a5 5 0 1 0 0-10 5 5 0 0 0 0 10zm0 .2a5.2 5.2 0 1 1 0-10.4 5.2 5.2 0 0 1 0 10.4z"/>
            <path fill="#0061FF" d="M6.445 19.928a4.442 4.442 0 1 1 0-8.884 4.442 4.442 0 0 1 0 8.884zm0-.4a4.042 4.042 0 1 0 0-8.084 4.042 4.042 0 0 0 0 8.084z"/>
            <circle cx="6.462" cy="15.489" r="1" fill="#0061FF"/>
            <circle cx="16.996" cy="19.008" r="1" fill="#0061FF"/>
            <path fill="#0061FF" d="M19.214 15.416h2.024a.35.35 0 1 1 0 .702h-2.024a.35.35 0 0 1 0-.702z"/>
        </g>
        <path fill="#0061FF" d="M19.753 3l.653.717-4.34 3.958L14 5.945l.623-.744 1.416 1.186z"/>
    </g>
</svg>
