<svg xmlns="http://www.w3.org/2000/svg" width="24" height="24" viewBox="0 0 24 24">
    <g fill="none" fill-rule="nonzero">
        <path d="M24 0H0v24h24z"/>
        <path fill="#0061FF" stroke="#0061FF" stroke-width=".2" d="M3.521 12.168c.043.023.086.048.129.073-.058.01-.1.021-.127.031.011-.015.023-.065.006-.093zm.129.073c.498.3.968.74 1.358 1.291 1.969.182 3.456.273 4.461.273 1.005 0 2.504-.091 4.423-.23.459-.668.905-1.115 1.343-1.337a17.791 17.791 0 0 0-1.352-.098c-1.106-.048-2.69-.077-4.341-.08-1.675-.004-3.262.019-4.383.065-.6.025-1.056.056-1.344.092-.064.008-.12.016-.165.024zm-.127.031h-.001s.002 0 .003-.002z"/>
        <path fill="#0061FF" d="M14.7 20.5a.3.3 0 0 0 .3.3h1a.3.3 0 0 0 .3-.3v-2.3h-1.6v2.3zm-.2-2.5h2v2.5a.5.5 0 0 1-.5.5h-1a.5.5 0 0 1-.5-.5V18z"/>
        <path fill="#0061FF" d="M15.245 20.892h.946l.229-.441-.07-2.332h-1.688l-.118 1.386.059.946.178.361zM3.285 20.894h.946l.23-.44-.07-2.333H2.702l-.118 1.387.06.945.132.35z"/>
        <path fill="#0061FF" d="M2.7 18.2v2.3a.3.3 0 0 0 .3.3h1a.3.3 0 0 0 .3-.3v-2.3H2.7zm-.2-.2h2v2.5a.5.5 0 0 1-.5.5H3a.5.5 0 0 1-.5-.5V18z"/>
        <path fill="#FFF" d="M2 15c2.53.368 5.04.551 7.53.551S14.51 15.368 17 15l-.113 2.32-.16.685-.478.848-1.028.757-.986.286H5.022l-.994-.136-1.1-.755-.502-.666-.259-.839L2 15z"/>
        <path fill="#0061FF" d="M2.2 17A2.8 2.8 0 0 0 5 19.8h9a2.8 2.8 0 0 0 2.8-2.8v-1.769a51.26 51.26 0 0 1-7.27.52c-2.424 0-4.868-.173-7.33-.52V17zm14.6-1.97l.029-.005.171.148v.03l-.2.028v-.202zM2 15c2.53.368 5.04.551 7.53.551S14.51 15.368 17 15v2a3 3 0 0 1-3 3H5a3 3 0 0 1-3-3v-2z"/>
        <path fill="#0061FF" d="M5.5 17h8a2 2 0 0 1-2 2h-4a2 2 0 0 1-2-2zM7.62 14.31c.607.096 1.276.624 1.872.624.51 0 1.003-.553 1.51-.623.485-.067 1.216.182 2.19.749-1.201.14-2.435.211-3.7.211-1.265 0-2.531-.07-3.8-.211.846-.569 1.489-.818 1.928-.75z"/>
        <g transform="translate(2 12)">
            <path fill="#0061FF" d="M1.004.428C.33.598.127 1.362.364 2.68l.084.082 2.559.353a.3.3 0 0 0 .303-.444C2.39 1.025 1.635.27 1.004.428zm2.093 2.476a.1.1 0 0 1-.063.012L.548 2.572c-.2-1.18-.022-1.817.505-1.95.501-.126 1.208.58 2.082 2.146a.1.1 0 0 1-.038.136z"/>
            <circle cx="2.553" cy="2.49" r="1" fill="#0061FF" stroke="#0061FF" stroke-width=".2"/>
            <path fill="#0061FF" d="M1.397 2.592a.788.788 0 1 0 0-1.575.788.788 0 0 0 0 1.575zm0 .2a.988.988 0 1 1 0-1.975.988.988 0 0 1 0 1.975z"/>
            <circle cx="2.552" cy="2.482" r="1" fill="#FFF"/>
        </g>
        <g transform="matrix(-1 0 0 1 16.982 11.993)">
            <path fill="#0061FF" d="M1.004.428C.33.598.127 1.362.364 2.68l.084.082 2.559.353a.3.3 0 0 0 .303-.444C2.39 1.025 1.635.27 1.004.428zm2.093 2.476a.1.1 0 0 1-.063.012L.548 2.572c-.2-1.18-.022-1.817.505-1.95.501-.126 1.208.58 2.082 2.146a.1.1 0 0 1-.038.136z"/>
            <circle cx="2.553" cy="2.49" r="1" fill="#0061FF" stroke="#0061FF" stroke-width=".2"/>
            <path fill="#0061FF" d="M1.397 2.592a.788.788 0 1 0 0-1.575.788.788 0 0 0 0 1.575zm0 .2a.988.988 0 1 1 0-1.975.988.988 0 0 1 0 1.975z"/>
            <circle cx="2.552" cy="2.482" r="1" fill="#FFF"/>
        </g>
        <path fill="#0061FF" d="M9.375 11.364c2.695 0 4.77.127 6.232.38-.802-2.843-1.582-4.27-2.231-4.27-.192 0-.5-.015-1.006-.047l-1.56-.102c-.62-.04-1.145-.07-1.647-.093-2.332-.11-3.838-.055-4.174.2-.509.388-1.082 1.838-1.677 4.31 1.359-.252 3.378-.378 6.063-.378zM3.045 12c.633-2.708 1.24-4.283 1.823-4.727.874-.665 7.288 0 8.508 0 .813 0 1.65 1.576 2.51 4.727-1.457-.29-3.627-.436-6.51-.436-2.884 0-4.994.146-6.33.436z"/>
        <path fill="#FFF" d="M4.84 5.352a17.28 17.28 0 0 1 4.671-.616c1.636 0 3.19.203 4.666.61a2 2 0 0 1 1.463 1.797l.325 4.933-.542-.076-.16-.697c-1.168-.366-3.1-.549-5.798-.549-2.697-.024-4.642.159-5.836.549l-.131.773h-.533l.421-4.966a2 2 0 0 1 1.455-1.758zm0 0a17.28 17.28 0 0 1 4.671-.616c1.636 0 3.19.203 4.666.61a2 2 0 0 1 1.463 1.797l.325 4.933-.542-.076-.16-.697c-1.168-.366-3.1-.549-5.798-.549-2.697-.024-4.642.159-5.836.549l-.131.773h-.533l.421-4.966a2 2 0 0 1 1.455-1.758zm0 0a17.28 17.28 0 0 1 4.671-.616c1.636 0 3.19.203 4.666.61a2 2 0 0 1 1.463 1.797l.325 4.933-.542-.076-.16-.697c-1.168-.366-3.1-.549-5.798-.549-2.697-.024-4.642.159-5.836.549l-.131.773h-.533l.421-4.966a2 2 0 0 1 1.455-1.758z"/>
        <path fill="#0061FF" d="M15.44 7.156a1.8 1.8 0 0 0-1.317-1.617 17.251 17.251 0 0 0-4.612-.603 17.08 17.08 0 0 0-4.617.609 1.8 1.8 0 0 0-1.309 1.581l-.402 4.75h.146l.102-.607.135-.157c1.22-.397 3.184-.582 5.9-.558 2.715 0 4.665.185 5.857.558l.135.146.13.563.161.023-.309-4.688zM4.84 5.352a17.28 17.28 0 0 1 4.671-.616c1.636 0 3.19.203 4.666.61a2 2 0 0 1 1.463 1.797l.325 4.933-.542-.076-.16-.697c-1.168-.366-3.1-.549-5.798-.549-2.697-.024-4.642.159-5.836.549l-.131.773h-.533l.421-4.966a2 2 0 0 1 1.455-1.758zm10.6 1.804a1.8 1.8 0 0 0-1.317-1.617 17.251 17.251 0 0 0-4.612-.603 17.08 17.08 0 0 0-4.617.609 1.8 1.8 0 0 0-1.309 1.581l-.402 4.75h.146l.102-.607.135-.157c1.22-.397 3.184-.582 5.9-.558 2.715 0 4.665.185 5.857.558l.135.146.13.563.161.023-.309-4.688zM4.84 5.352a17.28 17.28 0 0 1 4.671-.616c1.636 0 3.19.203 4.666.61a2 2 0 0 1 1.463 1.797l.325 4.933-.542-.076-.16-.697c-1.168-.366-3.1-.549-5.798-.549-2.697-.024-4.642.159-5.836.549l-.131.773h-.533l.421-4.966a2 2 0 0 1 1.455-1.758zm10.6 1.804a1.8 1.8 0 0 0-1.317-1.617 17.251 17.251 0 0 0-4.612-.603 17.08 17.08 0 0 0-4.617.609 1.8 1.8 0 0 0-1.309 1.581l-.402 4.75h.146l.102-.607.135-.157c1.22-.397 3.184-.582 5.9-.558 2.715 0 4.665.185 5.857.558l.135.146.13.563.161.023-.309-4.688zM4.84 5.352a17.28 17.28 0 0 1 4.671-.616c1.636 0 3.19.203 4.666.61a2 2 0 0 1 1.463 1.797l.325 4.933-.542-.076-.16-.697c-1.168-.366-3.1-.549-5.798-.549-2.697-.024-4.642.159-5.836.549l-.131.773h-.533l.421-4.966a2 2 0 0 1 1.455-1.758z"/>
        <path fill="#0061FF" d="M15.907 11.333l.139-.044v-.032l-.089.008-.05.068zm1.94-.242a.445.445 0 0 0 .052-.006.445.445 0 0 0 .001-.053v-.395a.432.432 0 0 0-.431-.431h-.442c-.196 0-.316.026-.423.083a.527.527 0 0 0-.22.22c-.058.107-.084.228-.084.423v.274l-.118.038 1.664-.153zm-.82-1.085h.442c.349 0 .631.283.631.631v.395c0 .085-.008.115-.023.147a.181.181 0 0 1-.069.075c-.03.018-.06.029-.144.037l-2.018.185v-.333l.254-.082v-.129c0-.237.037-.386.107-.517a.727.727 0 0 1 .303-.302c.13-.07.28-.107.517-.107zM3.042 11.329l-.139-.045v-.032l.089.008.05.069zm-1.939-.242a.445.445 0 0 1-.053-.007.445.445 0 0 1-.001-.053v-.394c0-.239.193-.432.431-.432h.442c.196 0 .316.026.423.083.096.051.17.125.22.22.058.107.084.228.084.423v.274l.118.038-1.664-.152zM1.923 10H1.48a.632.632 0 0 0-.631.632v.394c0 .085.008.115.023.147a.181.181 0 0 0 .069.075c.03.018.06.03.144.037l2.018.185v-.333l-.254-.082v-.129c0-.237-.037-.386-.107-.517a.727.727 0 0 0-.303-.302c-.13-.07-.279-.107-.517-.107zM5.143 5.982a1.3 1.3 0 0 0-1.047 1.157l-.315 3.438c.426-.109.918-.203 1.477-.284.62-.09 1.233-.135 1.837-.136l.245-4.601-2.197.426zm2.41-.671l-.268 5.047c-.656-.01-1.322.035-1.999.133s-1.253.216-1.73.355l.341-3.725a1.5 1.5 0 0 1 1.208-1.335l2.449-.475zM11.64 5.577l2.198.426a1.3 1.3 0 0 1 1.047 1.158l.315 3.438a14.349 14.349 0 0 0-1.477-.284 12.983 12.983 0 0 0-1.838-.137l-.244-4.6zm-.213-.245l.269 5.047c.656-.009 1.322.036 1.999.133.676.098 1.253.217 1.73.355l-.341-3.724a1.5 1.5 0 0 0-1.208-1.336l-2.449-.475zM10.88 5.48a13.409 13.409 0 0 0-1.437-.108c-.33 0-.786.035-1.367.107l-.272 4.644h3.336l-.26-4.642zm-2.994-.178c.667-.087 1.186-.13 1.557-.13s.913.043 1.627.13l.282 5.02h-3.76l.294-5.02z"/>
        <path fill="#0061FF" d="M14.777 6.706l.198.028-.982 6.79-.198-.028zM1.377 10.126l-.328.183-.097.586.059.27 1.91.2h.153v-.122l-.317-.166-.126-.622-.523-.33h-.731z"/>
        <g fill="#0061FF">
            <path d="M18.829 20.482h3.64c.1 0 .18.08.18.18v.36h-4v-.36c0-.1.08-.18.18-.18z"/>
            <path d="M19.36 20.46h2.583l-1.291-6.05-1.291 6.05zm-.247.2l1.363-6.384a.18.18 0 0 1 .352 0l1.362 6.383h-3.077z"/>
            <path d="M20.104 16.596h1.123l.178.9H19.88z"/>
        </g>
        <path fill="#0061FF" d="M15.96 11.356c.533 0 1.2-.065 2-.196l.033-.592-.267-.403-.71-.038-.611.172-.237.861a1.752 1.752 0 0 1-.242.05s-.109.146.034.146z"/>
    </g>
</svg>
