<svg xmlns="http://www.w3.org/2000/svg" width="24" height="24" viewBox="0 0 24 24">
    <g fill="none" fill-rule="nonzero">
        <path d="M0 0h24v24H0z"/>
        <path fill="#0061FF" d="M4 5.2a.8.8 0 0 0-.8.8v11a.8.8 0 0 0 .8.8h5a.8.8 0 0 0 .8-.8V6a.8.8 0 0 0-.8-.8H4zM4 5h5a1 1 0 0 1 1 1v11a1 1 0 0 1-1 1H4a1 1 0 0 1-1-1V6a1 1 0 0 1 1-1z"/>
        <path fill="#0061FF" d="M3.5 6.5h6V16h-6zM6.5 17.5a.5.5 0 1 0 0-1 .5.5 0 0 0 0 1zm0 .2a.7.7 0 1 1 0-1.4.7.7 0 0 1 0 1.4z"/>
        <g fill="#FFF">
            <path d="M7.695 10.301h.55v.32h-.55v.55h-.32v-.55h-.522v-.32h.522V9.78h.32v.522zM5.484 12.475c-.596-.6-.497-1.845-.073-2.283.118-.128.308-.064.522.151.2.202.294.442.224.584-.1.167-.215.208-.523.237-.018 0-.05.147-.033.312a1.05 1.05 0 0 0 .93.94c.168.02.313-.012.318-.043a.865.865 0 0 0 .008-.067l.006-.089a.378.378 0 0 1 .198-.336c.143-.091.334-.024.513.153.248.246.326.447.145.6-.457.476-1.605.476-2.235-.159z"/>
        </g>
        <g transform="translate(11 6)">
            <path fill="#0061FF" d="M.4.2a.2.2 0 0 0-.2.2v7.2c0 .11.09.2.2.2h10.2a.2.2 0 0 0 .2-.2V.4a.2.2 0 0 0-.2-.2H.4zm0-.2h10.2c.22 0 .4.18.4.4v7.2a.4.4 0 0 1-.4.4H.4a.4.4 0 0 1-.4-.4V.4C0 .18.18 0 .4 0z"/>
            <path fill="#0061FF" d="M.9.7a.2.2 0 0 0-.2.2v5.2c0 .11.09.2.2.2h9.2a.2.2 0 0 0 .2-.2V.9a.2.2 0 0 0-.2-.2H.9zm0-.2h9.2c.22 0 .4.18.4.4v5.2a.4.4 0 0 1-.4.4H.9a.4.4 0 0 1-.4-.4V.9C.5.68.68.5.9.5z"/>
            <circle cx="5.476" cy="3.486" r="1" fill="#0061FF"/>
            <path fill="#FFF" d="M5.841 3.027l-.341.341-.341-.34A.093.093 0 0 0 5 3.093c0 .024.01.048.027.066l.341.34-.34.34a.093.093 0 0 0 .13.133l.342-.341.04.04.301.3A.093.093 0 0 0 6 3.907a.093.093 0 0 0-.027-.066l-.341-.34.038-.038.303-.302a.093.093 0 0 0-.132-.133z"/>
            <circle cx="5.492" cy="7.129" r="1" fill="#0061FF"/>
            <path fill="#0061FF" d="M4.816 8l-.02.168a1.2 1.2 0 0 1-.588.885l-.47.274H7.31L6.83 9.03a1.2 1.2 0 0 1-.546-.783L6.233 8H4.816zm-.22.142l.044-.254h1.756l.083.32a1 1 0 0 0 .455.652l.481.296a.2.2 0 0 1-.105.37H3.74a.2.2 0 0 1-.101-.372l.47-.274a1 1 0 0 0 .489-.738zM9.75 10.215c-.284.151-.313.497-.074.946.262.493.501.639.826.466.322-.17.331-.443.066-.94-.24-.453-.535-.622-.817-.472zm-.093-.177c.433-.23.829.067 1.088.554.26.488.351.946-.15 1.212-.5.266-.836-.062-1.096-.55-.259-.487-.275-.986.158-1.216zM3.604 10.2l-1.202 1.6h6.204l-1.183-1.6h-3.82zm0-.2h3.819a.2.2 0 0 1 .16.081l1.183 1.6a.2.2 0 0 1-.16.319H2.402a.2.2 0 0 1-.16-.32l1.202-1.6a.2.2 0 0 1 .16-.08z"/>
            <path fill="#0061FF" d="M3.507 10.499a.1.1 0 0 1 .1-.1H7.43a.1.1 0 1 1 0 .2H3.607a.1.1 0 0 1-.1-.1zM3.252 10.972a.1.1 0 0 1 .1-.1H7.65a.1.1 0 1 1 0 .2H3.352a.1.1 0 0 1-.1-.1zM2.895 11.472a.1.1 0 0 1 .1-.1H3.9a.1.1 0 0 1 0 .2h-.905a.1.1 0 0 1-.1-.1zM4.25 11.474a.1.1 0 0 1 .1-.1h.906a.1.1 0 0 1 0 .2h-.905a.1.1 0 0 1-.1-.1zM5.697 11.474a.1.1 0 0 1 .1-.1h.905a.1.1 0 0 1 0 .2h-.905a.1.1 0 0 1-.1-.1zM7.008 11.473a.1.1 0 0 1 .1-.1h.906a.1.1 0 1 1 0 .2h-.906a.1.1 0 0 1-.1-.1z"/>
        </g>
    </g>
</svg>
