<svg xmlns="http://www.w3.org/2000/svg" width="24" height="24" viewBox="0 0 24 24">
    <g fill="none" fill-rule="nonzero">
        <path d="M0 0h24v24H0z"/>
        <path fill="#0061FF" d="M4 5.2a.8.8 0 0 0-.8.8v11a.8.8 0 0 0 .8.8h5a.8.8 0 0 0 .8-.8V6a.8.8 0 0 0-.8-.8H4zM4 5h5a1 1 0 0 1 1 1v11a1 1 0 0 1-1 1H4a1 1 0 0 1-1-1V6a1 1 0 0 1 1-1z"/>
        <path fill="#0061FF" d="M3.5 6.5V16h6V6.5h-6zm-.2-.2h6.4v9.9H3.3V6.3zM6.5 17.5a.5.5 0 1 0 0-1 .5.5 0 0 0 0 1zm0 .2a.7.7 0 1 1 0-1.4.7.7 0 0 1 0 1.4z"/>
        <g fill="#0061FF">
            <path d="M7.643 10.279h.55v.32h-.55v.55h-.32v-.55H6.8v-.32h.522v-.522h.32v.522zM5.432 12.452c-.596-.6-.497-1.844-.073-2.282.118-.128.308-.065.522.15.2.202.294.443.224.584-.1.167-.215.209-.523.237-.018 0-.05.147-.033.312a1.05 1.05 0 0 0 .93.941c.168.02.313-.013.318-.044a.865.865 0 0 0 .008-.067l.006-.088a.378.378 0 0 1 .198-.336c.143-.092.334-.024.513.152.248.246.326.447.145.6-.457.477-1.605.477-2.235-.159z"/>
        </g>
        <g fill="#0061FF">
            <path d="M16.5 16.17c.66 0 .877.33 1.803.33 1.208 0 1.733-1.177 1.733-2.451 0-1.387-1.308-1.297-1.733-1.92-.6-.879-.687-2.129-1.803-2.129-1.187 0-.983 1.362-1.799 2.129-.772.725-1.696.597-1.696 1.92 0 1.217.528 2.367 1.559 2.367.679 0 1.22-.247 1.936-.247zM14.892 9.844c.552 0 1.053-.659 1.053-1.211s-.426-3.077-1.25-2.559c-.824.518-1.082 1.877-.883 2.743.199.866.527 1.027 1.08 1.027zM18.159 9.837c-.553 0-1.053-.658-1.053-1.21 0-.553.426-3.077 1.25-2.56.823.519 1.081 1.878.882 2.744-.198.865-.527 1.026-1.08 1.026zM13.602 12.177a1 1 0 0 1-1.366-.366c-.276-.478-.58-1.903.04-2.49.299-.282 1.416 1.012 1.692 1.49a1 1 0 0 1-.366 1.366zM19.281 12.165a1 1 0 0 0 1.366-.366c.276-.479.58-1.904-.04-2.49-.298-.282-1.416 1.011-1.692 1.49a1 1 0 0 0 .366 1.366z"/>
        </g>
    </g>
</svg>
