<svg xmlns="http://www.w3.org/2000/svg" width="24" height="24" viewBox="0 0 24 24">
    <g fill="none" fill-rule="nonzero">
        <path d="M24 0H0v24h24z"/>
        <g fill="#0061FF">
            <path d="M4.943 11.103l.035-.077 6.863-5.863h.13l6.897 5.94v9.555l-.1.1H5.043l-.1-.1v-9.555zm.2.046v9.409H18.67l.034-9.38-6.797-5.807-6.763 5.778zm6.763-6.667l-7.438 6.31v10.44h14.876l.034-10.365-7.472-6.385zm.065-.207l7.572 6.516v10.542l-.1.1H4.368l-.1-.1.035-10.618 7.538-6.44h.13z"/>
            <path d="M11.859 3.407h.134l8.7 7.83.317-.353-9.084-8.176-9.085 8.176.318.353 8.7-7.83zm.067.209l-8.708 7.836-.14-.007-.452-.502.007-.141 9.226-8.303h.134l9.225 8.303.008.141-.452.502-.14.007-8.708-7.836zM17.08 4.544h2.7v4.5l-2.7-2.572z"/>
        </g>
        <path fill="#0061FF" d="M5.333 3.667H7v1.666H5.333V7H3.667V5.333H2V3.667h1.667V2h1.666v1.667z"/>
        <g fill="#0061FF">
            <path d="M12.125 18.377c.494 0 .658.249 1.352.249.906 0 1.3-.884 1.3-1.84 0-1.04-.98-.972-1.3-1.44-.45-.658-.515-1.596-1.352-1.596-.89 0-.737 1.022-1.349 1.596-.58.545-1.272.449-1.272 1.44 0 .914.396 1.776 1.169 1.776.51 0 .915-.185 1.452-.185zM10.919 13.633c.414 0 .79-.494.79-.908 0-.414-.32-2.308-.938-1.92-.617.39-.811 1.409-.662 2.058.15.65.396.77.81.77zM13.369 13.628c-.414 0-.79-.494-.79-.908 0-.414.32-2.308.937-1.92.618.39.812 1.409.663 2.058-.15.65-.396.77-.81.77zM9.952 15.383a.75.75 0 0 1-1.025-.275c-.207-.358-.435-1.427.03-1.867.224-.212 1.062.759 1.27 1.117a.75.75 0 0 1-.275 1.025zM14.21 15.373a.75.75 0 0 0 1.025-.274c.207-.359.436-1.428-.03-1.868-.224-.211-1.062.76-1.269 1.118a.75.75 0 0 0 .275 1.024z"/>
        </g>
    </g>
</svg>
