<svg xmlns="http://www.w3.org/2000/svg" width="24" height="24" viewBox="0 0 24 24">
    <g fill="none" fill-rule="evenodd">
        <path d="M0 0h24v24H0z"/>
        <path fill="#0061FF" d="M22.004 4.493v.963h-2.885V7.26h2.273v.932h-2.273v1.84h2.885V11H17.9V4.493zM17.515 13.108v.428h-1.282v.856h1.082v.43h-1.082V16h-.542v-2.892h1.824zm2.905 1.874V16h-.538v-2.892h.942c.194 0 .36.023.502.068a.966.966 0 0 1 .35.19c.092.081.16.179.204.292.044.113.066.237.066.372 0 .14-.023.268-.07.385a.799.799 0 0 1-.21.301.977.977 0 0 1-.35.196c-.14.047-.304.07-.492.07h-.404zm0-.42h.404a.81.81 0 0 0 .258-.037.435.435 0 0 0 .29-.274.643.643 0 0 0 .036-.221.583.583 0 0 0-.036-.21.415.415 0 0 0-.108-.16.48.48 0 0 0-.182-.101.853.853 0 0 0-.258-.035h-.404v1.038zM9.269 18.778h.579V19H9v-1.446h.269v1.224zm3.806-.287V19h-.269v-1.446h.471c.097 0 .18.011.251.034.071.023.13.054.175.095.046.04.08.09.102.146a.51.51 0 0 1 .033.186c0 .07-.011.134-.035.192a.4.4 0 0 1-.105.151.489.489 0 0 1-.175.098.78.78 0 0 1-.246.035h-.202zm0-.21h.202c.05 0 .093-.006.13-.018a.217.217 0 0 0 .145-.137.322.322 0 0 0 0-.216.208.208 0 0 0-.055-.08.24.24 0 0 0-.09-.05.427.427 0 0 0-.13-.018h-.202v.519zm4.648-.727v.214h-.641v.401h.505v.207h-.505v.409h.64V19h-.911v-1.446h.912zm4.28.723a.782.782 0 0 1-.053.292.667.667 0 0 1-.38.378.812.812 0 0 1-.299.053h-.552v-1.446h.552c.11 0 .21.018.3.054a.665.665 0 0 1 .38.377.782.782 0 0 1 .052.292zm-.275 0c0-.08-.01-.15-.032-.213a.452.452 0 0 0-.09-.16.392.392 0 0 0-.144-.101.494.494 0 0 0-.19-.035h-.282v1.018h.281c.07 0 .134-.012.19-.035a.392.392 0 0 0 .144-.1.452.452 0 0 0 .091-.16.664.664 0 0 0 .032-.214zM4.256 21.277v.107h-.32v.214h.27v.108h-.27V22H3.8v-.723h.456zm2.843 0v.107h-.32v.2h.252v.104h-.252v.204h.32V22h-.456v-.723h.456zm2.533.612h.289V22h-.424v-.723h.135v.612zm3.357-.25a.4.4 0 0 1-.026.147.337.337 0 0 1-.19.195.39.39 0 0 1-.15.027.392.392 0 0 1-.15-.028.34.34 0 0 1-.19-.194.4.4 0 0 1-.027-.148.4.4 0 0 1 .027-.147.347.347 0 0 1 .19-.194.392.392 0 0 1 .15-.028c.055 0 .105.01.15.028a.342.342 0 0 1 .19.194.4.4 0 0 1 .026.148zm-.138 0a.337.337 0 0 0-.016-.107.226.226 0 0 0-.045-.08.195.195 0 0 0-.072-.051.247.247 0 0 0-.095-.017.249.249 0 0 0-.095.017.197.197 0 0 0-.073.05.227.227 0 0 0-.045.08.332.332 0 0 0-.016.108c0 .04.005.075.016.106a.198.198 0 0 0 .118.13c.028.012.06.018.095.018a.247.247 0 0 0 .095-.018.196.196 0 0 0 .072-.05.223.223 0 0 0 .045-.08.337.337 0 0 0 .016-.107zm2.665.107V22h-.135v-.723h.236c.048 0 .09.006.125.017a.242.242 0 0 1 .088.047c.023.02.04.045.05.073.012.029.017.06.017.093a.257.257 0 0 1-.017.097.2.2 0 0 1-.053.075.244.244 0 0 1-.087.049.39.39 0 0 1-.123.017h-.101zm0-.105h.1a.203.203 0 0 0 .065-.01.109.109 0 0 0 .072-.069.16.16 0 0 0 0-.107.104.104 0 0 0-.026-.04.12.12 0 0 0-.046-.025.213.213 0 0 0-.064-.009h-.101v.26zm3.284-.364v.05c0 .015-.005.029-.013.041l-.371.524h.375V22h-.55v-.053c0-.007.001-.013.004-.02a.08.08 0 0 1 .009-.017l.372-.526h-.361v-.107h.535zm3.024.361a.391.391 0 0 1-.027.146.335.335 0 0 1-.19.19.406.406 0 0 1-.15.026h-.275v-.723h.276c.054 0 .104.009.15.027a.338.338 0 0 1 .19.189.391.391 0 0 1 .026.146zm-.138 0a.332.332 0 0 0-.016-.106.226.226 0 0 0-.045-.08.196.196 0 0 0-.072-.05.247.247 0 0 0-.095-.018h-.14v.509h.14a.247.247 0 0 0 .095-.018.196.196 0 0 0 .072-.05.226.226 0 0 0 .045-.08.332.332 0 0 0 .016-.107z"/>
        <g fill="#0061FF">
            <path d="M8 11.25a1.75 1.75 0 0 0 1.059-3.144c-.294-.223-1.777-.24-2.061-.04A1.75 1.75 0 0 0 8 11.25z"/>
            <path fill-rule="nonzero" d="M8 11.35c1.574 0 2.837-.536 3.803-1.612C10.896 8.68 9.633 8.15 8 8.15s-2.896.53-3.803 1.588C5.163 10.814 6.427 11.35 8 11.35zM3.884 9.646C4.854 8.45 6.23 7.85 8 7.85c1.769 0 3.145.6 4.116 1.796l-.002.192C11.08 11.045 9.705 11.65 8 11.65s-3.08-.605-4.114-1.812l-.002-.192z"/>
            <path fill-rule="nonzero" d="M11.823 7.963a.15.15 0 0 1-.008.212l-.808.75-.204-.22.808-.75a.15.15 0 0 1 .212.008zM4.14 8.011a.15.15 0 0 1 .212-.008l.807.75-.204.22-.808-.75a.15.15 0 0 1-.007-.212zM10.657 7.23a.15.15 0 0 1 .047.207l-.586.933-.254-.16.586-.933a.15.15 0 0 1 .207-.047zM5.352 7.23a.15.15 0 0 1 .207.047l.586.933-.254.16-.586-.934a.15.15 0 0 1 .047-.206zM6.635 6.817a.15.15 0 0 1 .188.1l.324 1.053-.287.088-.324-1.054a.15.15 0 0 1 .1-.187zM9.38 6.831a.15.15 0 0 1 .099.188l-.325 1.053-.287-.088.325-1.054a.15.15 0 0 1 .187-.099z"/>
        </g>
        <path fill="#0061FF" fill-rule="nonzero" d="M8.2 15.2a6 6 0 1 0 0-12 6 6 0 0 0 0 12zm0 .2A6.2 6.2 0 1 1 8.2 3a6.2 6.2 0 0 1 0 12.4zm0-.87a5.33 5.33 0 1 0 0-10.66 5.33 5.33 0 0 0 0 10.66zm0 .2a5.53 5.53 0 1 1 0-11.06 5.53 5.53 0 0 1 0 11.06z"/>
    </g>
</svg>
